<svg class="torn-svg" xmlns="http://www.w3.org/2000/svg" width="1920" height="144" viewBox="0 0 1920 144">
  <path id="separator1" d="M1949.729,40.169s-5.991,1.507-7.588,1.466c-15.254-3.057-32.4,2.926-47.171-1.8C1884.048,36.042,1874.4,20.305,1863,20.725c-9.525,8.913-19.827-1.736-28.983,1.426-6.326,1.7-12.345,20.3-18.781,17.083-2.188.538-2.886.249-4.815,1.378-1.283-.35-1.876-1.251-3.506,3.389-4.266-4.028-14.358.276-18.742.171-6.252,1.548-11.124.214-16.624-3.779-5.443-3.3-7.855-16.84-14.722-10.752-4.516-4.557-21.866-4.019-26.347.958-2.5,6.84-1.063,11.583-2.219,13.731-1.388,2.051-4.415-2.9-7.579-3.2-8.765,5.8-23.821,6.753-33.618,1.408-13.114,4.57-28.864,15.065-41.662,7.743-4.4.2-4.6,2.542-9.2-4.722-3.479-8.253-7.64.56-11.361-.905-6.34.765-17.578-.3-23.188-.988-5.571-5.143-5.887-10.765-12.666-13.5-14.309-2.554-28.873,18.84-42.488,16.115-8.976-2.515-19.858,2.09-29.119-.551-11.7-14.721-28.842,8.034-37.717-4.968-3.189-4.2-5-2.345-9.595,1.85-2.658,1.023-5.29-9.83-7.943-11.093-10.118-1.128-15.755,15.506-25.4,10.932-4.6,8.629-9.3,2.187-13.9-.118-6.155-1.937-14.432,2.436-20.359,2.567-4.582-4.859-7.148-9.23-12.288-13.5-4.02-2.506-8.079,2.139-12.169-.52-11.607-.848-23.614,16.363-35.419,9.62-9.608-4.575-19.959-19.191-30.006-18.255,1.388,12.779-35.792,8.945-43.665,18.159-12.082,6.3-23.856-12.65-35.709-12.594-10.135-11.659-19.884-1.389-30.327-5.867-7.464-2.239-12.376,1.866-19.054,6.475-3.774,3.626-1.731,2.86-5.992,2.528-1.2,11.585-3.431,1.4-4.78-.048-6.445,5.559-13.94-2.9-20.223.188-4.626-3.617-8.2-5.006-12.126-10.407-7.108,2-14.4-4.728-22.775-6.166-11.823.262-23.566,3.188-34.712-1.994-9.309-4.553-19.586,3.923-28.658,4.439-4.969,4.745-6.129,2.055-10.3,3.534-2.32-.73-4.182,6.6-6.81,1.566-6.287-2.6-12.7-3.713-19-.114-6.054,7.487-12.517-3.372-18.535-.258-6.959-13.006-12.67,8.557-19.436,9.331-12.393-2.755-25.776-4.715-38.275-.118-5.052-1.513-11.146.569-16.031.512-5.259.136-5.887-3.651-9.911-.577-8.36,7.562-23.118-5.642-32.493.857-4.727-3.188-7.385,3.591-12.556-.455-8.831,3.075-7.987,8.264-14.59,13.455-7.315,8.384-21.905,1.741-29.4-.835-5.9-7.938-8.659-.7-11.335-3.118-2.763-1.063-2.97-3.812-8.167-8.8-4.354-.914-7.921-15.047-13.791-12.576-6.687-4.728-11.019,2.458-16.049,2.37-7.978,8.992-20.135,1.4-28.592.214-11.647-2.5-23.293,1.561-34.94,0-8.246,5.318-16.5.332-24.743-.022-4.6.652-13.114,1.651-12.943,8.557-8.44,3.678-18.215,1.714-26.843.8-.672,5.2.765,8.251-.316,9.59-8.075-3.954-15.737,2.624-24.106-.49-5.874,1.286-11.84-6.674-17.723-.118-13.457,2.086-26.918-3.945-40.375,0-5.325.848-8.747,1.111-13.325,2.69-6.946,2.851-11.273,10.4-19.418,4.749-7.42,1.789-14.779-2.55-21.975-1.26-8.747-.079-5.848,3.669-12.016,3.923-4.411,5.957-13.3-3-18.061-.188-8.176-8.7-16.475,5.239-24.651.052-7.021-2.694-7.517-2.143-12.842-7.374-5.369,3.6-12.974-9.6-19.414-12.073-7.086-4.841-12.727,17.662-19.8,12.978-4.749,1.509-6.577-6.543-11.264-.315-3.357-.512-4.657-7.084-7.526-2.344-3.106,9.713-4.222,4.64-8.2,1.679-4.67,2.213-9.358-2.427-14.032-.039-5.263-5.078-10.526,7.024-15.79,0-5.074,3.674-13-.407-17.56-.258-4.358-2.27-7.166-.883-11.774,5.882-5.426,2.921-7.882,8.174-13.685.061-11.546-5.7-18.588-.6-32.313-5.116-9.274,2.974-18.549-4.163-27.823-.018-8.049,2.239-14.217-8.961-21.953-2.528-6.441-.748-12.952,1.483-19.4.057-6.168,1.1-12.376,5.467-18.544.057-4.13.136-10.808-4.28-14.34-9.344-9.85-10.011-16.15,1.927-27.269.422-5.522-.6-11.15-5.519-16.572-.573-4.393,4.854-8.822-5.968-13.316-8.526-10.728-3.7-23.605,9.522-30.02,18.509-8.158,11-19.3-9.578-32.5-10.016-6.282-4.268-11.352,9.677-17.354,9.537-1.441-4.649-4.829-.7-4.829-.7l0,60s8.966,7.331,14.491,2.711c6.77,3.591,13.619,5.983,20.214-.311,7.152-2.935,12.02-19.361,19.862-10.75,11.528-.236,18.654,8.848,27.81.915,9.428-8.1,24.106-10.016,34.808-4.851,9.784,1.255,20.143,7.719,30.4,1.181,10.254,2.615,20.4,1.762,29.765,3.787,10.922,9.678,21.615,14.061,34.066,10.92,11.374-2.217,21.4-7.2,33.086.569,5.391-7.238,9.49-.332,14.871,2.279a272.736,272.736,0,0,1,34.009,7.78c9.055,2.751,14.1,15.534,22.709,14.34,6.406,12.066,13.7-5.244,20.258.131,6.766-3.442,11.919,1.356,18.966,5.471,6-6.525,12.473,2.5,18.522-.267,11.739.888,29.062,3.573,39.456-2.965,3.3,3.333,5.281,2.86,9.094-6.578,4.67.057,10.671,5.847,15.508-.311,6.067.009,8.488-8.869,14.243-5.113,2.759-4.5,5.311-.394,8.062-.332,1.252-.179,3.708,3.84,5.659-5.209,4.855-.284,11.572,4.426,16.756-3.639,4.345-3.158,8.273-9.158,12.793-2.4,5.369,5.388,6.8,12.8,13.263,9.2,4-1.032,6.441-3.236,9.305-7.623,6.353-9.8,15.732-.945,23.351-2.292,15.21-3.424,30.5-7.938,45.713-.017,3.844-1.487,6.871.35,10.584-.958,5.562-6.5,5.281-3.07,11.489-6.766,10.465.634,21.426,8.524,32.08,2.83,5.869-8.983,10.825-.765,16.813-2.6,3.6,3.647,8.167,3.219,11.453-.8,4.143-4.1,2.328-6.971,4.626-11.218,3.972-4.6,17.934,4.706,25.191,7.553,6.507,9.219,13.017,5.292,19.524-.022,9.468-3.866,16.515-11.712,24.44-4.881,4.705,13.881,6.884,3.682,11.9,7.024,4.661-2.764,7.724,7.172,11.888,5.572,7.2,5.943,16.4-.363,25.969,7.474,9.564,2.449,19.493,5.887,28.152-.713,10.821,2.1,21.813-1.574,32.155-2.48,5.219-7.085,4.96-5.121,10.658-2.344A36.046,36.046,0,0,0,906.168,99.8c7.636,8.646,17.332,6.184,25.38-.424,7.732,2.939,15.57.328,23.289-.118,10.377-3.49,21.65,3.761,32.871,4.872,11.221-5.725,22.388-8.537,32.563-4.7,3.176-5.318,5.3-2.117,8.106-6.936.615,4.273,5.061-4.238,5.377-5.086,6.34-5.406,12.416,2.073,18.276,1.841,7.921,2.436,14.357-4.71,21.461,5.182,5.263,2.318,10.465,5.7,17.046,11.944a36.453,36.453,0,0,0,19.985-2.773c6.581-.547,9.876-.367,15.205,4.824,3.137,6.306,3.137,8.594,7.653,2.6,4.657,4.111,9.406-13.881,14.01-9.42,6.309-3.91,13.975-.254,20.864-1.684,9.344,2.335,19.032,12.539,28.767,2.344,9.74-2.532,19.533,3.079,29.08-.415,3.857,7.028,12.112-6.328,15.333-.245,3.224-2.891,3.023-2.921,6.383-9.989,3.339-11.655,10.122-11.489,14.274-2.34,5.746.127,9.349.052,15.451,2.655,7.161,9.543,14.524.542,21.65.258,7.341.73,11.862-.56,18.711-4.811,10.157-4.526,15.992,2.362,23.693,7.789,4.573,6.687,5.232,3.1,10.517,5.353,3.449,5.6,6.392.258,9.973,5.852,6.115-2.3,14.05,6.687,20.46.429,6.344,2.318,10.157-1.732,15.776-2.707,3.984,1.378,6.164-5.41,9.222,3.267,5.021,8.9,5.057-6.494,11.075,4.513,7.548-8.279,15.5.013,23.113-.1,3.835,4.736,8.193-1.819,12,.1,6.032.892,3.19-1.592,7.913-4.513,5.663-6.25,11.154-11.944,18.465-3.031,5.4-5.436,10.8-2.06,16.207.009,4.226,1.22,8.651-.564,12.789.424,3.893-3.236,7.675,3.075,11.858,5.279,4.152,6.105,8.571-1.124,12.71,2.637,7.385-2.475,12.895,8.021,20.236,11.03,7.337,11.305,15.434.433,22.942.822,5.94,5.121,10.254-1.229,16.233,6.591,3.708-12.031,7.319,2.672,10.843,1.631,2.28-.569,4.732,10.186,7.346,4.063,2.254,3.621,4.929-6.818,7.236-.394,7.249-.918,9.591-.214,15.06,7.649,11.647,7.041,25.262,16.413,39.663,7.365,7.491,1.644,14.977-.59,22.468,0,10.223,4.43,20.446-1.465,30.67-.066,10.228,3.884,20.451.087,30.674.061,6.05-1.793,10.206-4.522,15.689-2.532,4.169-1.964,8.918,4.024,13.154.236,7.754,2.537,18.566,4.653,25.09-7.081,2.851-4.212,3.625-9.346,6.129-5.86,1.573,2.747,3.146.157,4.718-4.6,2.649-6.263,3.814-10.072,3.488-7.662,8.281-8.218,31.324-.678,44.122-5.279,9.244-1.57,18.382-4.588,28.342-1.741,5.544,3.814,8.369-3.5,13.452-4.723,7.192-1.487,16.022,3.455,23.355-.42,5.061-1.028,15.14,2.4,15.14,2.4Z" transform="translate(-29.729 -11.169)" fill="#fff"/>
</svg>
