<svg id="katman_1" data-name="katman 1" xmlns="http://www.w3.org/2000/svg" viewBox="0 0 76.36 128"><path d="M17.22,77.4c0-1.72,0-3.4,0-5.09,0-2.71,0-5.42.08-8.12,0-1.78.41-3.51.6-5.26.1-.89.2-1.78.25-2.67a5.29,5.29,0,0,0-.52-2.71c-.07-.13-.11-.27-.17-.41a3.47,3.47,0,0,1,.35-3.73.85.85,0,0,0,0-1.08,9.28,9.28,0,0,1-.89-1.85.77.77,0,0,1,.27-1.06.93.93,0,0,0,.43-1.24,8.1,8.1,0,0,1-.34-1.61,1,1,0,0,1,.24-.83c.11-.11.08-.23.08-.35-.05-.89-.13-1.77-.15-2.65-.08-4.46-.24-8.92-.19-13.39a2.18,2.18,0,0,0-.47-1.77,1.55,1.55,0,0,1-.23-.42,1,1,0,0,1,.2-1.41c.41-.45.43-.67.09-1.26a5,5,0,0,1-.64-3.15,3.23,3.23,0,0,1,.39-1.09.72.72,0,0,0,0-.67A12.49,12.49,0,0,1,16,12.1a51.29,51.29,0,0,1-.17-6.56,5.82,5.82,0,0,0-.28-1.28,9.49,9.49,0,0,1,0-1.41c0-.38.39-.48.64-.6.92-.4,1.87-.75,2.8-1.14a1.13,1.13,0,0,1,1.27.22c1.39,1.16,2.85,2.24,4.26,3.37,1.25,1,2.56,2,3.73,3.05.73.68,1.43,1.39,2.12,2.11a16.55,16.55,0,0,0,4.79,3.47,12.89,12.89,0,0,1,3,2.21c.24.23.46.59.76.61s.51-.35.75-.56a8,8,0,0,1,3-1.65.83.83,0,0,1,.64,0,.38.38,0,0,0,.51-.07c.23-.21.55-.33.61-.7a.31.31,0,0,1,.18-.19,2.27,2.27,0,0,0,.73-.61A24.09,24.09,0,0,1,48,10.05C49,9.21,49.88,8.19,50.89,7.3L55.2,3.5a17.39,17.39,0,0,0,1.85-1.89.49.49,0,0,1,.6-.2.63.63,0,0,0,.52,0c.72-.24,1.45-.44,2.15-.73a.89.89,0,0,0,.5-.38A.49.49,0,0,1,61.47,0a.47.47,0,0,1,.34.6A34.45,34.45,0,0,0,61.15,6c-.26,2.33-.66,4.65-.95,7-.35,2.8-.69,5.6-.89,8.42-.16,2.39-.42,4.78-.57,7.17-.11,1.74-.08,3.48-.18,5.23-.16,2.94-.15,5.89-.22,8.84a6.07,6.07,0,0,0,.3,2.47A2.21,2.21,0,0,1,58,47.69c-.39.38-.4.38-.15.88a3.44,3.44,0,0,0,.33.56,1.85,1.85,0,0,1-.38,2.39c-.24.18-.21.3-.08.5s.22.4.34.6a5.17,5.17,0,0,1,.63,3.51,59.13,59.13,0,0,0-.48,6.65c-.05,2.37,0,4.73-.06,7.09,0,1.74.19,3.46.29,5.19.09,1.51.16,3,.12,4.54,0,.32.08.33.34.21a16.79,16.79,0,0,1,1.85-.49,2,2,0,0,0,.55-.2,9.76,9.76,0,0,1,3.82-1.27,7.79,7.79,0,0,0,1.65-.47A54.39,54.39,0,0,1,75,74.88a1.3,1.3,0,0,1,1.23.43.48.48,0,0,1,.07.55,7.77,7.77,0,0,1-1,1.91c-1.79,2.58-3.74,5-5.68,7.52-1,1.27-1.93,2.59-2.88,3.9-.43.59-.94,1.13-1.4,1.7a.73.73,0,0,1-.73.29h-.17c-.49,0-.59.14-.36.56A.9.9,0,0,1,64,92.81c-1.51,2.14-3.06,4.25-4.51,6.42-1.79,2.68-3.81,5.2-5.53,7.93-.76,1.19-1.56,2.35-2.38,3.49-1.14,1.58-2,3.3-3,5a45.63,45.63,0,0,1-3.87,5.76,17,17,0,0,0-2.56,4.09,3,3,0,0,1-.64.89c-.21.2-.42.37-.72.18-.1-.06-.18,0-.27,0-.76.25-1.5.55-2.24.86a2,2,0,0,0-.56.33c-.39.33-.63.36-1-.17s-.8-1.12-1.16-1.7c-1.5-2.45-3.19-4.77-4.8-7.14s-3.21-4.91-4.82-7.36c-1-1.58-2.13-3.13-3.18-4.71-1.71-2.57-3.63-5-5.54-7.41C16,97.87,15,96.36,13.89,95c-.57-.69-1.08-1.43-1.71-2.07A1.06,1.06,0,0,1,12,91.56c.11-.22.05-.28-.15-.32a7.78,7.78,0,0,1-.84-.16c-.45-.16-.55-.28-.56-.74,0-.11,0-.21,0-.31,0-.27,0-.5-.39-.56s-.42-.26-.57-.47c-1.16-1.6-2.1-3.34-3.17-5-2-3.08-3.85-6.24-6.11-9.15-.38-.49-.24-.79.33-1A20.39,20.39,0,0,1,3.39,73c.21,0,.43-.08.52-.36a.35.35,0,0,1,.42-.17c.44.11.89-.12,1.34.09s.86.3,1.29.47c2.2.84,4.42,1.66,6.57,2.64,1.12.51,2.24,1,3.36,1.57ZM45.28,15.64h0a4.1,4.1,0,0,0-.38-1c0-.06,0-.19-.15-.14a1.28,1.28,0,0,0-.32.24c-.09.09,0,.15.06.2A5,5,0,0,0,45.28,15.64ZM1.8,75.14c0,.11.05.16.1.22,1.78,2.46,3.34,5.08,5,7.64C8,84.71,9,86.52,10.12,88.19a.58.58,0,0,0,.46.3.72.72,0,0,1,.7.65c0,.26.12.51.15.77s.1.29.3.3a2.24,2.24,0,0,1,.79.23c.86.39.92.61.39,1.37a.3.3,0,0,0,0,.46,7.84,7.84,0,0,1,.54.61c1.22,1.5,2.38,3,3.52,4.59,1.26,1.72,2.62,3.37,3.88,5.09,2,2.76,3.87,5.66,5.79,8.5,2.06,3,4,6.19,6.09,9.21,1.13,1.61,2.08,3.35,3.1,5,.32.52.63,1.06.95,1.59.05.08.12.19.18.19s.13-.13.17-.22c.26-.61.48-1.24.79-1.83a19.52,19.52,0,0,1,2.2-3.07,50.54,50.54,0,0,0,3.72-5.54,62.07,62.07,0,0,1,3.58-5.67,16,16,0,0,0,1.2-1.72c1.17-2,2.57-3.77,3.88-5.63,2.25-3.19,4.48-6.39,6.74-9.57a.36.36,0,0,0,0-.46,2.53,2.53,0,0,1-.24-.75.47.47,0,0,1,.23-.53,2.93,2.93,0,0,1,1.35-.48.39.39,0,0,0,.36-.14c.37-.45.77-.89,1.12-1.36,1.26-1.71,2.47-3.47,3.85-5.1,1-1.26,2-2.63,3-3.91a24.64,24.64,0,0,0,2.45-3.61c0-.07.11-.13.07-.22s-.17,0-.25,0l-1.17.29a41.06,41.06,0,0,0-6.14,1.88,13.94,13.94,0,0,1-2.76.83,8.41,8.41,0,0,0-2.59.77c-.62.32-1.26.6-1.9.89a6.44,6.44,0,0,0-2,1,.35.35,0,0,1-.6-.14.32.32,0,0,0-.2-.16.48.48,0,0,1-.28-.6,4.5,4.5,0,0,0,.11-.64c0-1.84,0-3.67-.18-5.5-.09-1.39-.24-2.76-.22-4.16,0-2,0-4,.07-6,.06-1.79,0-3.58.2-5.37.11-1.21.29-2.41.37-3.62a3.27,3.27,0,0,0-.4-1.85c-.15-.29-.31-.57-.46-.85a4,4,0,0,1-.37-.81.73.73,0,0,1,.5-1,.74.74,0,0,0,.37-1c-.11-.2-.24-.39-.34-.6-.49-.91-.53-1.56.34-2.24a1.13,1.13,0,0,0,.35-.46.88.88,0,0,0,.06-.76,7.57,7.57,0,0,1-.43-2.91c0-4.07.22-8.14.31-12.21,0-1.23.1-2.45.2-3.68.23-2.67.45-5.35.66-8,.2-2.4.54-4.79.82-7.18.14-1.2.45-2.39.53-3.6s.32-2.34.38-3.52c0-.78.13-1.54.15-2.32-.11,0-.14.06-.19.11l-2.5,2.26c-1.12,1-2.3,2-3.37,3a16.84,16.84,0,0,1-1.61,1.55,29.53,29.53,0,0,0-3.08,2.84.3.3,0,0,0-.08.39c.46,1.06,1,2.1,1.51,3.12.21.38.21.66,0,.88s-.49.22-.87,0a19.07,19.07,0,0,1-3.27-2.67.39.39,0,0,0-.46-.11,6.06,6.06,0,0,0-1.84,1,24.14,24.14,0,0,1-3.87,2.73.37.37,0,0,0-.17.24c-.14.42-.46.52-.87.35a8.52,8.52,0,0,1-2.55-1.77A8.62,8.62,0,0,0,31.29,16a20.88,20.88,0,0,1-6.18-4.52,23.46,23.46,0,0,0-2.32-2.25L17.13,4.65c-.06,0-.11-.15-.2-.11s0,.16,0,.25,0,.3,0,.45a55.46,55.46,0,0,0,.16,6.94,9.32,9.32,0,0,0,.54,2.93,1.62,1.62,0,0,1-.06,1.47,3,3,0,0,0-.34,1.73A4.41,4.41,0,0,0,17.74,20a1.71,1.71,0,0,1,0,2.12.7.7,0,0,0,0,1,3.09,3.09,0,0,0,.26.37,1,1,0,0,1,.29.91,15.22,15.22,0,0,0-.06,1.79c0,3.77.16,7.55.16,11.32,0,1,.1,2,.16,3.06,0,.65.24,1.35-.26,1.95,0,.05,0,.18,0,.27,0,.44.23.84.3,1.27A1.87,1.87,0,0,1,18,46a.25.25,0,0,0-.07.35A15.13,15.13,0,0,0,18.76,48a1.47,1.47,0,0,1,.11,1.35,3.28,3.28,0,0,1-.35.67,2.41,2.41,0,0,0-.25,2.44c.15.3.24.63.37.93a5.7,5.7,0,0,1,.49,2.44c0,1.06-.14,2.11-.26,3.16-.15,1.27-.4,2.54-.49,3.82-.25,3.31-.15,6.63-.13,9.94,0,2.62,0,5.23,0,7.85a4.12,4.12,0,0,1-.11,1.16c-.09.3-.39.47-.57.28a2.21,2.21,0,0,0-1-.48c-2.71-1.07-5.32-2.38-8-3.6-2.07-1-4.21-1.75-6.31-2.63A1.14,1.14,0,0,0,1.8,75.14ZM60.52,1.6c-.8.39-1.59.51-2.33.84a.55.55,0,0,0-.38.46c-.23,1.24-.25,2.51-.4,3.76-.15,1.4-.28,2.8-.49,4.19-.26,1.69-.51,3.38-.69,5.07-.12,1.13-.3,2.25-.41,3.38-.14,1.51-.24,3-.37,4.53-.17,2.1-.4,4.2-.51,6.3-.14,2.84-.18,5.68-.29,8.53-.07,1.79-.06,3.6-.1,5.4a6.71,6.71,0,0,0,.39,2.7,1.59,1.59,0,0,1,.08.81,2.4,2.4,0,0,1-.89,1.58.46.46,0,0,0-.13.66,3.77,3.77,0,0,0,.37.65A1.89,1.89,0,0,1,54,53c-.15.1-.15.19-.07.34.23.41.45.82.66,1.24a4.05,4.05,0,0,1,.41,2.3c-.11,1.17-.26,2.32-.37,3.49-.16,1.91-.16,3.82-.2,5.74,0,2.11,0,4.22,0,6.33a8.12,8.12,0,0,0,0,.86c.09,1.27.22,2.54.29,3.81.08,1.44.13,2.88.07,4.33,0,.23.06.25.25.18.59-.22,1.14-.5,1.73-.69a1,1,0,0,0,.72-1.08c0-1.25-.07-2.5-.09-3.75,0-.47,0-.94-.07-1.41a44.29,44.29,0,0,1-.26-4.46c0-2.56.08-5.12.1-7.67a59.05,59.05,0,0,1,.5-6.51,4.05,4.05,0,0,0-.56-2.9,5.44,5.44,0,0,1-.37-.67,3.48,3.48,0,0,1-.26-.63.69.69,0,0,1,.42-.93.75.75,0,0,0,.4-1.18c-.08-.12-.15-.25-.23-.38-.58-1-.58-1.68.33-2.42a1,1,0,0,0,.32-1.3,5.74,5.74,0,0,1-.38-2.36c0-.74.06-1.49,0-2.24,0-2.73.13-5.45.22-8.18.06-1.81,0-3.62.21-5.43s.29-3.68.44-5.52q.32-3.64.71-7.28c.26-2.47.76-4.89,1-7.36.11-1.25.24-2.51.37-3.76A10,10,0,0,1,60.52,1.6ZM38.61,126.28h.09a8.7,8.7,0,0,1,2.12-.66c.08,0,.11-.11.14-.18s.13-.32.19-.48A11.1,11.1,0,0,1,43,121.75,43.36,43.36,0,0,0,46.46,117c1.75-2.8,3.36-5.68,5.29-8.38,1.62-2.27,3.15-4.62,4.77-6.9,2.12-3,4.22-6,6.34-9,.24-.33.37-.6.13-1a1.48,1.48,0,0,1-.14-.52.46.46,0,0,1,.27-.54,2.89,2.89,0,0,1,1.36-.45.36.36,0,0,0,.32-.16c.33-.39.68-.75,1-1.16C67.16,87,68.51,85.1,70,83.3c.87-1,1.6-2.18,2.45-3.23a26.09,26.09,0,0,0,2.69-3.91c0-.08.15-.17.06-.28s-.18,0-.26,0l-2.33.58c-.17,0-.33.07-.16.3a.5.5,0,0,1,0,.5,9.09,9.09,0,0,1-1,1.82c-1,1.62-2.3,3.08-3.42,4.65-.84,1.16-1.79,2.24-2.66,3.38-1.22,1.63-2.36,3.33-3.68,4.89a1.26,1.26,0,0,1-1.14.56c-.49,0-.58.12-.34.55a.89.89,0,0,1-.07,1l-.2.28-2.68,3.8c-3.24,4.6-6.47,9.21-9.63,13.87-1.25,1.84-2.35,3.78-3.48,5.69a45.37,45.37,0,0,1-3.91,5.61A13,13,0,0,0,38.7,126C38.65,126.05,38.56,126.14,38.61,126.28ZM16.73,2.92,16.8,3C18,4,19.25,5,20.48,5.9a49.93,49.93,0,0,1,6,5.3,16,16,0,0,0,4.63,3.41,11.37,11.37,0,0,1,2.56,1.72,19.81,19.81,0,0,0,1.77,1.53c.45.32.49.33.93.05l.12-.07,1.2-.8c.11-.07.17-.14,0-.26a14.28,14.28,0,0,0-3.14-2.38,18.56,18.56,0,0,1-5.56-4.11c-.61-.65-1.24-1.29-1.91-1.88-1.81-1.61-3.76-3-5.61-4.61a5.44,5.44,0,0,1-1.28-1.21,3.45,3.45,0,0,0-.75-.66.34.34,0,0,0-.35-.05C18.35,2.2,17.53,2.52,16.73,2.92ZM2.31,74.09l.21.09c1.87.72,3.75,1.44,5.61,2.18S11.6,78,13.35,78.75c1.19.54,2.39,1,3.6,1.55.24.1.33.07.31-.2a7.22,7.22,0,0,1,0-.93.4.4,0,0,0-.28-.45c-.74-.33-1.49-.66-2.21-1-2.15-1.09-4.38-2-6.62-2.89a12.66,12.66,0,0,0-2.72-1,2.91,2.91,0,0,0-1.09-.15C3.67,73.78,3,73.92,2.31,74.09Z" transform="translate(0.02)" style="fill:#050502"/><path d="M1.8,75.14a1.14,1.14,0,0,1,.54.2C4.44,76.22,6.58,77,8.65,78c2.64,1.22,5.25,2.53,8,3.6a2.21,2.21,0,0,1,1,.48c.18.19.48,0,.57-.28a4.12,4.12,0,0,0,.11-1.16c0-2.62,0-5.23,0-7.85,0-3.31-.12-6.63.13-9.94.09-1.28.34-2.55.49-3.82.12-1,.24-2.1.26-3.16a5.7,5.7,0,0,0-.49-2.44c-.13-.3-.22-.63-.37-.93A2.41,2.41,0,0,1,18.52,50a3.28,3.28,0,0,0,.35-.67A1.47,1.47,0,0,0,18.76,48a15.13,15.13,0,0,1-.85-1.65A.25.25,0,0,1,18,46a1.87,1.87,0,0,0,.61-2c-.07-.43-.26-.83-.3-1.27,0-.09-.05-.22,0-.27.5-.6.29-1.3.26-1.95-.06-1-.17-2-.16-3.06,0-3.77-.19-7.55-.16-11.32a15.22,15.22,0,0,1,.06-1.79,1,1,0,0,0-.29-.91,3.09,3.09,0,0,1-.26-.37.7.7,0,0,1,0-1,1.71,1.71,0,0,0,0-2.12,4.41,4.41,0,0,1-.55-1.65,3,3,0,0,1,.34-1.73,1.62,1.62,0,0,0,.06-1.47,9.32,9.32,0,0,1-.54-2.93,55.46,55.46,0,0,1-.16-6.94c0-.15,0-.3,0-.45s-.07-.2,0-.25.14.07.2.11l5.66,4.61a23.46,23.46,0,0,1,2.32,2.25A20.88,20.88,0,0,0,31.29,16a8.62,8.62,0,0,1,2.05,1.56,8.52,8.52,0,0,0,2.55,1.77c.41.17.73.07.87-.35a.37.37,0,0,1,.17-.24A24.14,24.14,0,0,0,40.8,16a6.06,6.06,0,0,1,1.84-1,.39.39,0,0,1,.46.11,19.07,19.07,0,0,0,3.27,2.67c.38.26.63.27.87,0s.23-.5,0-.88c-.55-1-1-2.06-1.51-3.12a.3.3,0,0,1,.08-.39,29.53,29.53,0,0,1,3.08-2.84,16.84,16.84,0,0,0,1.61-1.55c1.07-1.08,2.25-2,3.37-3l2.5-2.26s.08-.12.19-.11c0,.78-.12,1.54-.15,2.32-.06,1.18-.3,2.34-.38,3.52s-.39,2.4-.53,3.6c-.28,2.39-.62,4.78-.82,7.18-.21,2.67-.43,5.35-.66,8-.1,1.23-.18,2.45-.2,3.68-.09,4.07-.27,8.14-.31,12.21A7.57,7.57,0,0,0,54,47.12a.88.88,0,0,1-.06.76,1.13,1.13,0,0,1-.35.46c-.87.68-.83,1.33-.34,2.24.1.21.23.4.34.6a.74.74,0,0,1-.37,1,.73.73,0,0,0-.5,1,4,4,0,0,0,.37.81c.15.28.31.56.46.85a3.27,3.27,0,0,1,.4,1.85c-.08,1.21-.26,2.41-.37,3.62-.17,1.79-.14,3.58-.2,5.37-.07,2-.05,4-.07,6,0,1.4.13,2.77.22,4.16.14,1.83.21,3.66.18,5.5a4.5,4.5,0,0,1-.11.64.48.48,0,0,0,.28.6.32.32,0,0,1,.2.16.35.35,0,0,0,.6.14,6.44,6.44,0,0,1,2-1c.64-.29,1.28-.57,1.9-.89a8.41,8.41,0,0,1,2.59-.77,13.94,13.94,0,0,0,2.76-.83,41.06,41.06,0,0,1,6.14-1.88l1.17-.29c.08,0,.19-.07.25,0s0,.15-.07.22A24.64,24.64,0,0,1,69,81.11c-1,1.28-1.94,2.65-3,3.91-1.38,1.63-2.59,3.39-3.85,5.1-.35.47-.75.91-1.12,1.36a.39.39,0,0,1-.36.14,2.93,2.93,0,0,0-1.35.48.47.47,0,0,0-.23.53,2.53,2.53,0,0,0,.24.75.36.36,0,0,1,0,.46c-2.26,3.18-4.49,6.38-6.74,9.57-1.31,1.86-2.71,3.67-3.88,5.63a16,16,0,0,1-1.2,1.72,62.07,62.07,0,0,0-3.58,5.67A50.54,50.54,0,0,1,40.14,122a19.52,19.52,0,0,0-2.2,3.07c-.31.59-.53,1.22-.79,1.83,0,.09,0,.23-.17.22s-.13-.11-.18-.19c-.32-.53-.63-1.07-.95-1.59-1-1.69-2-3.43-3.1-5-2.11-3-4-6.16-6.09-9.21-1.92-2.84-3.76-5.74-5.79-8.5-1.26-1.72-2.62-3.37-3.88-5.09-1.14-1.55-2.3-3.09-3.52-4.59a7.84,7.84,0,0,0-.54-.61.3.3,0,0,1,0-.46c.53-.76.47-1-.39-1.37a2.24,2.24,0,0,0-.79-.23c-.2,0-.27-.11-.3-.3s-.11-.51-.15-.77a.72.72,0,0,0-.7-.65.58.58,0,0,1-.46-.3C9,86.52,8,84.71,6.88,83c-1.64-2.56-3.2-5.18-5-7.64C1.85,75.3,1.78,75.25,1.8,75.14Zm20.13,9.69c0,.43,0,.85,0,1.28,0,.18-.06.3-.27.18-.8-.47-1.59-.94-2.4-1.38s-1.48-.77-2.23-1.12l-2-1a10.82,10.82,0,0,0-2-.9,2,2,0,0,1-1-.5,1.5,1.5,0,0,0-.73-.37,2,2,0,0,1-.75-.34A11.67,11.67,0,0,0,8,79.34a.76.76,0,0,0-1,.17.74.74,0,0,0,.11,1,16.47,16.47,0,0,0,1.92,2,.87.87,0,0,1,.34.53,2.22,2.22,0,0,0,.4.76c.41.59.8,1.19,1.21,1.78a21.11,21.11,0,0,0,1.3,1.8c.57.69,1.05,1.44,1.63,2.11s1.28,1.58,2,2.33c.48.55,1,1.08,1.42,1.67s1.06,1.29,1.58,1.93c.22.28.39.59.62.86s.55.7.81,1.06.56.89.89,1.3c.52.66,1,1.36,1.54,2s1.21,1.49,1.87,2.19a12.75,12.75,0,0,1,1.16,1.39c.67,1,1.52,1.8,2.25,2.72a17.61,17.61,0,0,1,1.44,1.55c.55.87,1.18,1.7,1.74,2.58s1.29,1.94,2,2.86,1.17,1.77,1.85,2.59a4.41,4.41,0,0,0,.91,1.06,1.06,1.06,0,0,1,.39.45,1.55,1.55,0,0,0,2.52.33c.36-.4.73-.79,1.07-1.21a6.4,6.4,0,0,0,.77-1c.33-.63.86-1.12,1.24-1.72.23-.37.52-.69.74-1.07s.41-.63.63-.93c.33-.48.75-.9,1.11-1.35.8-1,1.67-1.94,2.51-2.9a16,16,0,0,0,1.18-1.43c.53-.78,1.12-1.52,1.64-2.31.66-1,1.23-2.08,1.9-3.1.5-.77,1-1.56,1.49-2.33a18.66,18.66,0,0,0,1.2-1.88c.37-.71.83-1.37,1.25-2A24.67,24.67,0,0,1,57.11,93a7.51,7.51,0,0,0,.67-.9c.38-.65.71-1.34,1.12-2a11.24,11.24,0,0,1,1.23-1.63c.45-.48.86-1,1.32-1.52.63-.68,1.11-1.49,1.81-2.11a.62.62,0,0,0,.16-.3,1.16,1.16,0,0,1,.8-.78c.21-.09.42-.17.64-.24a1.31,1.31,0,0,0,.93-1.17,1.27,1.27,0,0,0-.7-1.28,1.19,1.19,0,0,0-1.38.08,1.09,1.09,0,0,1-.65.29,3.09,3.09,0,0,0-1.71.4.65.65,0,0,1-.26.08,5.08,5.08,0,0,0-1.45.38,26.39,26.39,0,0,0-3.2,1.23c-.47.21-1,.35-1.45.58-.74.39-1.53.66-2.23,1.12s-1.79.81-2.65,1.27c-.31.16-.34.12-.35-.21-.06-1.61.18-3.21.13-4.81A8.88,8.88,0,0,1,50,79.79a28.2,28.2,0,0,0,.31-3.89c0-1.87.07-3.75.14-5.63s0-3.53.07-5.29c0-1-.07-2.06,0-3.09,0-.64,0-1.28,0-1.92.06-1.8-.06-3.6.08-5.4.05-.69,0-1.39.05-2.09.08-1,0-2.08.07-3.13s.07-2.08.1-3.12c0-.49,0-1,.07-1.47.18-1.43.12-2.87.24-4.3.06-.61.06-1.23.11-1.85,0-.45,0-.91.07-1.37.08-.82.18-1.65.26-2.48s.14-1.75.21-2.62L52,28.62c0-.6.08-1.21.15-1.81.12-1,.19-2,.26-3s.2-2.05.27-3.07.23-1.83.37-2.74a9.7,9.7,0,0,0,.33-1.85.27.27,0,0,1,.1-.25,4.07,4.07,0,0,0,.55-.69,1.12,1.12,0,0,0,.09-1.29,1.14,1.14,0,0,0-1-.64,2.2,2.2,0,0,0-1.42.6c-.23.18-.39.46-.66.6a4.35,4.35,0,0,0-1,.9c-.46.46-.87,1-1.3,1.47a10,10,0,0,1-1.94,1.61c-.78.54-1.51,1.14-2.28,1.69s-1.68,1.1-2.48,1.71-1.53,1-2.3,1.53S38,24.4,37.13,25c-.11.08-.25.16-.38.05s-.47-.33-.68-.52c-.7-.68-1.5-1.26-2.19-2s-1.22-1.08-1.78-1.67a29.9,29.9,0,0,0-2.29-2.07c-1.18-1-2.34-2.05-3.46-3.12-.32-.31-.64-.62-1-.91a3.33,3.33,0,0,0-1.3-.86,1,1,0,0,1-.37-.26,1.67,1.67,0,0,0-1.84-.34,1.62,1.62,0,0,0-1,1.57c0,.78.05,1.56.06,2.33,0,.61,0,1.22,0,1.82,0,1.12.06,2.23.05,3.35a6.42,6.42,0,0,0,0,.88c.11.73.06,1.46.1,2.19s.11,1.75.13,2.63c.05,1.7.15,3.4.24,5.1,0,.45,0,.9.08,1.33A39.87,39.87,0,0,1,21.72,39c0,3.1,0,6.2,0,9.3,0,1.25.06,2.51.06,3.76,0,1.6,0,3.21.14,4.81s.12,3.11.14,4.66c0,1.88,0,3.76,0,5.63,0,1.11-.07,2.2-.08,3.3,0,.68,0,1.35,0,2,0,1.56-.07,3.13-.15,4.7,0,.57,0,1.14,0,1.71C21.89,80.84,21.84,82.84,21.93,84.83Z" transform="translate(0.02)" style="fill:#fdd901"/><path d="M60.52,1.6a10,10,0,0,0-.22,1.87C60.17,4.72,60,6,59.93,7.23c-.22,2.47-.72,4.89-1,7.36s-.5,4.85-.71,7.28c-.15,1.84-.28,3.68-.44,5.52s-.15,3.62-.21,5.43c-.09,2.73-.23,5.45-.22,8.18,0,.75,0,1.5,0,2.24a5.74,5.74,0,0,0,.38,2.36,1,1,0,0,1-.32,1.3c-.91.74-.91,1.39-.33,2.42.08.13.15.26.23.38a.75.75,0,0,1-.4,1.18.69.69,0,0,0-.42.93,3.48,3.48,0,0,0,.26.63,5.44,5.44,0,0,0,.37.67,4.05,4.05,0,0,1,.56,2.9,59.05,59.05,0,0,0-.5,6.51c0,2.55-.1,5.11-.1,7.67a44.29,44.29,0,0,0,.26,4.46c0,.47.07.94.07,1.41,0,1.25.11,2.5.09,3.75a1,1,0,0,1-.72,1.08c-.59.19-1.14.47-1.73.69-.19.07-.26,0-.25-.18.06-1.45,0-2.89-.07-4.33-.07-1.27-.2-2.54-.29-3.81a8.12,8.12,0,0,1,0-.86c0-2.11,0-4.22,0-6.33,0-1.92,0-3.83.2-5.74.11-1.17.26-2.32.37-3.49a4.05,4.05,0,0,0-.41-2.3c-.21-.42-.43-.83-.66-1.24-.08-.15-.08-.24.07-.34a1.89,1.89,0,0,0,.42-2.5,3.77,3.77,0,0,1-.37-.65.46.46,0,0,1,.13-.66A2.4,2.4,0,0,0,55,47.57a1.59,1.59,0,0,0-.08-.81,6.71,6.71,0,0,1-.39-2.7c0-1.8,0-3.61.1-5.4.11-2.85.15-5.69.29-8.53.11-2.1.34-4.2.51-6.3.13-1.51.23-3,.37-4.53.11-1.13.29-2.25.41-3.38.18-1.69.43-3.38.69-5.07.21-1.39.34-2.79.49-4.19.15-1.25.17-2.52.4-3.76a.55.55,0,0,1,.38-.46C58.93,2.11,59.72,2,60.52,1.6Z" transform="translate(0.02)" style="fill:#b67207"/><path d="M38.61,126.28c0-.14,0-.23.09-.33a13,13,0,0,1,1.61-2.55,45.37,45.37,0,0,0,3.91-5.61c1.13-1.91,2.23-3.85,3.48-5.69,3.16-4.66,6.39-9.27,9.63-13.87L60,94.43l.2-.28a.89.89,0,0,0,.07-1c-.24-.43-.15-.6.34-.55A1.26,1.26,0,0,0,61.76,92c1.32-1.56,2.46-3.26,3.68-4.89.87-1.14,1.82-2.22,2.66-3.38,1.12-1.57,2.39-3,3.42-4.65a9.09,9.09,0,0,0,1-1.82.5.5,0,0,0,0-.5c-.17-.23,0-.26.16-.3L75,75.89c.08,0,.19-.09.26,0s0,.2-.06.28a26.09,26.09,0,0,1-2.69,3.91c-.85,1.05-1.58,2.19-2.45,3.23-1.52,1.8-2.87,3.72-4.25,5.62-.3.41-.65.77-1,1.16a.36.36,0,0,1-.32.16,2.89,2.89,0,0,0-1.36.45.46.46,0,0,0-.27.54,1.48,1.48,0,0,0,.14.52c.24.38.11.65-.13,1-2.12,3-4.22,6-6.34,9-1.62,2.28-3.15,4.63-4.77,6.9-1.93,2.7-3.54,5.58-5.29,8.38A43.36,43.36,0,0,1,43,121.75,11.1,11.1,0,0,0,41.15,125c-.06.16-.12.32-.19.48s-.06.18-.14.18a8.7,8.7,0,0,0-2.12.66Z" transform="translate(0.02)" style="fill:#b67207"/><path d="M16.73,2.92c.8-.4,1.62-.72,2.44-1a.34.34,0,0,1,.35.05,3.45,3.45,0,0,1,.75.66A5.44,5.44,0,0,0,21.55,3.8c1.85,1.56,3.8,3,5.61,4.61.67.59,1.3,1.23,1.91,1.88a18.56,18.56,0,0,0,5.56,4.11,14.28,14.28,0,0,1,3.14,2.38c.13.12.07.19,0,.26l-1.2.8-.12.07c-.44.28-.48.27-.93-.05a19.81,19.81,0,0,1-1.77-1.53,11.37,11.37,0,0,0-2.56-1.72,16,16,0,0,1-4.63-3.41,49.93,49.93,0,0,0-6-5.3C19.25,5,18,4,16.8,3Z" transform="translate(0.02)" style="fill:#b67207"/><path d="M2.31,74.09c.69-.17,1.36-.31,2-.45a2.91,2.91,0,0,1,1.09.15,12.66,12.66,0,0,1,2.72,1c2.24.88,4.47,1.8,6.62,2.89.72.37,1.47.7,2.21,1a.4.4,0,0,1,.28.45,7.22,7.22,0,0,0,0,.93c0,.27-.07.3-.31.2-1.21-.5-2.41-1-3.6-1.55C11.6,78,9.91,77.07,8.13,76.36S4.39,74.9,2.52,74.18Z" transform="translate(0.02)" style="fill:#b67207"/><path d="M45.28,15.64a5,5,0,0,1-.79-.65c-.06-.05-.15-.11-.06-.2a1.28,1.28,0,0,1,.32-.24c.11-.05.12.08.15.14a4.1,4.1,0,0,1,.38,1Z" transform="translate(0.02)" style="fill:#b67207"/><path d="M45.28,15.64h0Z" transform="translate(0.02)" style="fill:#b67207"/><path d="M21.93,84.83c-.09-2,0-4-.08-6,0-.57-.07-1.14,0-1.71.08-1.57.11-3.14.15-4.7,0-.68,0-1.35,0-2,0-1.1.09-2.19.08-3.3,0-1.87,0-3.75,0-5.63,0-1.55-.05-3.11-.14-4.66s-.13-3.21-.14-4.81c0-1.25-.05-2.51-.06-3.76,0-3.1,0-6.2,0-9.3a39.87,39.87,0,0,0-.25-4.37c0-.43,0-.88-.08-1.33-.09-1.7-.19-3.4-.24-5.1,0-.88-.08-1.75-.13-2.63s0-1.46-.1-2.19a6.42,6.42,0,0,1,0-.88c0-1.12-.07-2.23-.05-3.35,0-.6,0-1.21,0-1.82,0-.77,0-1.55-.06-2.33a1.62,1.62,0,0,1,1-1.57,1.67,1.67,0,0,1,1.84.34,1,1,0,0,0,.37.26,3.33,3.33,0,0,1,1.3.86c.34.29.66.6,1,.91,1.12,1.07,2.28,2.11,3.46,3.12a29.9,29.9,0,0,1,2.29,2.07c.56.59,1.2,1.1,1.78,1.67s1.49,1.28,2.19,2c.21.19.45.35.68.52s.27,0,.38-.05C38,24.4,38.91,24,39.77,23.4s1.57-1,2.3-1.53,1.66-1.13,2.48-1.71,1.5-1.15,2.28-1.69a10,10,0,0,0,1.94-1.61c.43-.49.84-1,1.3-1.47a4.35,4.35,0,0,1,1-.9c.27-.14.43-.42.66-.6a2.2,2.2,0,0,1,1.42-.6,1.14,1.14,0,0,1,1,.64,1.12,1.12,0,0,1-.09,1.29,4.07,4.07,0,0,1-.55.69.27.27,0,0,0-.1.25A9.7,9.7,0,0,1,53.08,18c-.14.91-.3,1.82-.37,2.74s-.19,2-.27,3.07-.14,2-.26,3c-.07.6-.1,1.21-.15,1.81l-.27,3.52c-.07.87-.13,1.75-.21,2.62s-.18,1.66-.26,2.48c0,.46,0,.92-.07,1.37,0,.62,0,1.24-.11,1.85-.12,1.43-.06,2.87-.24,4.3-.06.48,0,1-.07,1.47,0,1-.06,2.08-.1,3.12s0,2.09-.07,3.13c-.05.7,0,1.4-.05,2.09-.14,1.8,0,3.6-.08,5.4,0,.64,0,1.28,0,1.92,0,1,.09,2.06,0,3.09-.09,1.76,0,3.53-.07,5.29s-.1,3.76-.14,5.63A28.2,28.2,0,0,1,50,79.79a8.88,8.88,0,0,0-.09,1.71c0,1.6-.19,3.2-.13,4.81,0,.33,0,.37.35.21.86-.46,1.83-.73,2.65-1.27s1.49-.73,2.23-1.12c.46-.23,1-.37,1.45-.58a26.39,26.39,0,0,1,3.2-1.23,5.08,5.08,0,0,1,1.45-.38.65.65,0,0,0,.26-.08,3.09,3.09,0,0,1,1.71-.4,1.09,1.09,0,0,0,.65-.29,1.19,1.19,0,0,1,1.38-.08,1.27,1.27,0,0,1,.7,1.28,1.31,1.31,0,0,1-.93,1.17c-.22.07-.43.15-.64.24a1.16,1.16,0,0,0-.8.78.62.62,0,0,1-.16.3c-.7.62-1.18,1.43-1.81,2.11-.46.49-.87,1-1.32,1.52a11.24,11.24,0,0,0-1.23,1.63c-.41.63-.74,1.32-1.12,2a7.51,7.51,0,0,1-.67.9,24.67,24.67,0,0,0-1.53,2.15c-.42.67-.88,1.33-1.25,2a18.66,18.66,0,0,1-1.2,1.88c-.51.77-1,1.56-1.49,2.33-.67,1-1.24,2.08-1.9,3.1-.52.79-1.11,1.53-1.64,2.31a16,16,0,0,1-1.18,1.43c-.84,1-1.71,1.89-2.51,2.9-.36.45-.78.87-1.11,1.35-.22.3-.44.61-.63.93s-.51.7-.74,1.07c-.38.6-.91,1.09-1.24,1.72a6.4,6.4,0,0,1-.77,1c-.34.42-.71.81-1.07,1.21a1.55,1.55,0,0,1-2.52-.33,1.06,1.06,0,0,0-.39-.45,4.41,4.41,0,0,1-.91-1.06c-.68-.82-1.21-1.74-1.85-2.59s-1.37-1.88-2-2.86-1.19-1.71-1.74-2.58A17.61,17.61,0,0,0,28,106.94c-.73-.92-1.58-1.74-2.25-2.72a12.75,12.75,0,0,0-1.16-1.39c-.66-.7-1.25-1.46-1.87-2.19s-1-1.34-1.54-2c-.33-.41-.59-.87-.89-1.3s-.52-.72-.81-1.06-.4-.58-.62-.86c-.52-.64-1.08-1.27-1.58-1.93s-.94-1.12-1.42-1.67c-.68-.75-1.29-1.56-2-2.33s-1.06-1.42-1.63-2.11a21.11,21.11,0,0,1-1.3-1.8c-.41-.59-.8-1.19-1.21-1.78a2.22,2.22,0,0,1-.4-.76A.87.87,0,0,0,9,82.51a16.47,16.47,0,0,1-1.92-2,.74.74,0,0,1-.11-1,.76.76,0,0,1,1-.17,11.67,11.67,0,0,1,2.55,1.39,2,2,0,0,0,.75.34,1.5,1.5,0,0,1,.73.37,2,2,0,0,0,1,.5,10.82,10.82,0,0,1,2,.9l2,1c.75.35,1.49.72,2.23,1.12s1.6.91,2.4,1.38c.21.12.27,0,.27-.18C21.94,85.68,21.93,85.26,21.93,84.83Zm-3.11,4.11a.39.39,0,0,0,.16.35,11.47,11.47,0,0,1,1.12,1.3c.52.65,1.06,1.28,1.55,2s1.06,1.36,1.56,2.07S24.3,96.21,24.88,97s1.15,1.58,1.78,2.33a6.08,6.08,0,0,1,.77,1,19.51,19.51,0,0,0,1.43,2c.29.41.6.8.88,1.22.38.57.77,1.13,1.18,1.67a1.94,1.94,0,0,1,.46,1,1.24,1.24,0,0,0,.23.56c.6.88,1.21,1.75,1.87,2.58.37.45.69.94,1.07,1.37a26.85,26.85,0,0,1,2.34,3.08c.17.26.35.51.53.76s.26.24.42,0c.56-.84,1.19-1.64,1.82-2.44a32.57,32.57,0,0,1,2.11-2.73c.89-.93,1.72-1.92,2.57-2.9.41-.47.82-1,1.21-1.44s.64-.86,1-1.28A18,18,0,0,0,48,101.53c.32-.57.67-1.12,1-1.67.49-.81,1-1.61,1.53-2.4.35-.52.59-1.11.91-1.64s.77-1.14,1.11-1.73a36,36,0,0,1,2.18-3.15,9.66,9.66,0,0,0,.88-1.34A9.27,9.27,0,0,1,57,87.51a2.67,2.67,0,0,0,.55-.81,16.29,16.29,0,0,0-2.59,1.21,16.83,16.83,0,0,1-2.28,1.25c-1,.48-2.07.94-3.13,1.36a1.69,1.69,0,0,1-2.26-.82,4.8,4.8,0,0,1-.37-1.87A39,39,0,0,1,47.05,83c.08-.72.08-1.46.1-2.19a11.41,11.41,0,0,1,.18-1.74,15.18,15.18,0,0,0,.23-2.24c0-1.73-.08-3.46,0-5.19,0-.94,0-1.89,0-2.84V57.23c0-.74,0-1.48.05-2.22.07-1.06,0-2.12.07-3.18s.1-2.18.1-3.26c0-.22,0-.44,0-.64.11-.91.11-1.83.18-2.74.1-1.49.14-3,.21-4.48,0-.89.11-1.78.14-2.67,0-1.41.3-2.79.37-4.19,0-.55.1-1.09.14-1.64.06-1.16.17-2.32.26-3.48,0-.59.06-1.19.15-1.77.18-1.17.21-2.34.33-3.51.06-.59.15-1.18.19-1.77s.09-1.18.15-1.77c0-.08,0-.2-.06-.24s-.13.07-.19.12a8,8,0,0,1-.73.57,17,17,0,0,0-1.46,1.06c-.49.38-.92.83-1.43,1.18s-1,.67-1.4,1c-.66.54-1.28,1.14-2,1.65-.93.72-2,1.29-2.95,1.92-.47.3-1,.55-1.21,1.16A1.25,1.25,0,0,1,38,29a2.55,2.55,0,0,1-2.55,0,1.5,1.5,0,0,1-.24-.2c-.26-.19-.31-.55-.55-.73-.49-.39-.93-.85-1.43-1.22a20.72,20.72,0,0,1-1.85-1.63c-.58-.56-1.15-1.13-1.7-1.73a21,21,0,0,0-2-1.81,36.2,36.2,0,0,1-3.26-2.94c-.06-.07-.13-.2-.23-.16s-.07.18-.07.27c0,.68,0,1.35.06,2,.05,1.57,0,3.15.07,4.73.06,1.09,0,2.19.07,3.29.06.93.05,1.88.08,2.81,0,.25,0,.5,0,.75.06.88.18,1.77.22,2.65.07,1.34.11,2.68.14,4,0,1.7,0,3.4,0,5.11,0,.63,0,1.28,0,1.92,0,2.33,0,4.66.08,7,0,.75,0,1.49.05,2.24.1,1.38.13,2.77.15,4.17,0,2.05,0,4.1,0,6.15,0,1.29.05,2.59,0,3.88,0,.93-.11,1.86-.17,2.8s-.08,1.92-.14,2.87c-.09,1.25-.17,2.49-.21,3.73s0,2.62-.07,3.93c0,1,0,2.08,0,3.12s-.19,2.07-.22,3.11a1.06,1.06,0,0,1-.29.6,3.18,3.18,0,0,1-1.1.63,1.71,1.71,0,0,1-1.82-.11A10.46,10.46,0,0,0,20,89.59C19.56,89.42,19.24,89.14,18.82,88.94Z" transform="translate(0.02)" style="fill:#fe9c01"/><path d="M18.82,88.94c.42.2.74.48,1.13.65a10.46,10.46,0,0,1,1.11.66,1.71,1.71,0,0,0,1.82.11,3.18,3.18,0,0,0,1.1-.63,1.06,1.06,0,0,0,.29-.6c0-1,.25-2.07.22-3.11s0-2.08,0-3.12c.05-1.31,0-2.62.07-3.93s.12-2.48.21-3.73c.06-.95.09-1.91.14-2.87s.12-1.87.17-2.8c.08-1.29,0-2.59,0-3.88,0-2,0-4.1,0-6.15,0-1.4-.05-2.79-.15-4.17-.05-.75,0-1.49-.05-2.24-.11-2.32,0-4.65-.08-7,0-.64-.06-1.29,0-1.92.06-1.71.05-3.41,0-5.11,0-1.34-.07-2.68-.14-4,0-.88-.16-1.77-.22-2.65,0-.25,0-.5,0-.75,0-.93,0-1.88-.08-2.81-.07-1.1,0-2.2-.07-3.29-.09-1.58,0-3.16-.07-4.73,0-.68-.06-1.35-.06-2,0-.09-.05-.23.07-.27s.17.09.23.16a36.2,36.2,0,0,0,3.26,2.94,21,21,0,0,1,2,1.81c.55.6,1.12,1.17,1.7,1.73a20.72,20.72,0,0,0,1.85,1.63c.5.37.94.83,1.43,1.22.24.18.29.54.55.73a1.5,1.5,0,0,0,.24.2A2.55,2.55,0,0,0,38,29a1.25,1.25,0,0,0,.52-.62c.21-.61.74-.86,1.21-1.16,1-.63,2-1.2,2.95-1.92.68-.51,1.3-1.11,2-1.65.45-.37.93-.71,1.4-1s.94-.8,1.43-1.18a17,17,0,0,1,1.46-1.06,8,8,0,0,0,.73-.57c.06-.05.1-.15.19-.12s.07.16.06.24q-.09.89-.15,1.77c0,.59-.13,1.18-.19,1.77-.12,1.17-.15,2.34-.33,3.51-.09.58-.1,1.18-.15,1.77-.09,1.16-.2,2.32-.26,3.48,0,.55-.11,1.09-.14,1.64-.07,1.4-.33,2.78-.37,4.19,0,.89-.1,1.78-.14,2.67-.07,1.49-.11,3-.21,4.48-.07.91-.07,1.83-.18,2.74,0,.2,0,.42,0,.64,0,1.08-.07,2.17-.1,3.26s0,2.12-.07,3.18c-.05.74-.05,1.48-.05,2.22V68.8c0,1,0,1.9,0,2.84-.06,1.73.06,3.46,0,5.19a15.18,15.18,0,0,1-.23,2.24,11.41,11.41,0,0,0-.18,1.74c0,.73,0,1.47-.1,2.19a39,39,0,0,0-.18,4.83,4.8,4.8,0,0,0,.37,1.87,1.69,1.69,0,0,0,2.26.82c1.06-.42,2.1-.88,3.13-1.36a16.83,16.83,0,0,0,2.28-1.25A16.29,16.29,0,0,1,57.5,86.7a2.67,2.67,0,0,1-.55.81,9.27,9.27,0,0,0-1.36,2.09,9.66,9.66,0,0,1-.88,1.34,36,36,0,0,0-2.18,3.15c-.34.59-.75,1.14-1.11,1.73s-.56,1.12-.91,1.64c-.52.79-1,1.59-1.53,2.4-.34.55-.69,1.1-1,1.67a18,18,0,0,1-1.45,2.15c-.33.42-.64.86-1,1.28s-.8,1-1.21,1.44c-.85,1-1.68,2-2.57,2.9A32.57,32.57,0,0,0,39.66,112c-.63.8-1.26,1.6-1.82,2.44-.16.24-.29.18-.42,0s-.36-.5-.53-.76a26.85,26.85,0,0,0-2.34-3.08c-.38-.43-.7-.92-1.07-1.37-.66-.83-1.27-1.7-1.87-2.58a1.24,1.24,0,0,1-.23-.56,1.94,1.94,0,0,0-.46-1c-.41-.54-.8-1.1-1.18-1.67-.28-.42-.59-.81-.88-1.22a19.51,19.51,0,0,1-1.43-2,6.08,6.08,0,0,0-.77-1c-.63-.75-1.2-1.54-1.78-2.33s-1.12-1.59-1.67-2.38-1.05-1.38-1.56-2.07-1-1.31-1.55-2A11.47,11.47,0,0,0,19,89.29.39.39,0,0,1,18.82,88.94Z" transform="translate(0.02)" style="fill:#feda01"/></svg>