<svg id="katman_1" data-name="katman 1" xmlns="http://www.w3.org/2000/svg" viewBox="0 0 128 107.48"><path d="M61.9.07V0h1.46V.07Z" transform="translate(-0.18)" style="fill:#cfcfcf"/><path d="M61.9.07h1.46c1.29.18,2.57.4,3.86.54a20.68,20.68,0,0,0,3.43,0A19.17,19.17,0,0,1,76,1.07c1.22.27,2.46.47,3.68.76a14,14,0,0,1,1.54.53c1.9.7,3.8,1.37,5.67,2.14a19.9,19.9,0,0,1,5.07,3c1.61,1.3,3.38,2.38,5.08,3.55a10.86,10.86,0,0,1,1.62,1.4,65.4,65.4,0,0,1,5.76,6.68c.84,1.15,1.93,2.08,2.79,3.21a45,45,0,0,1,3.16,4.25c.84,1.42,1.46,3,2.16,4.45a33.8,33.8,0,0,1,1.61,4.49c.51,1.72,1,3.44,1.45,5.19A17.66,17.66,0,0,1,116,43.4c.1,1.28.42,2.54.49,3.83.1,2,.1,4.06,0,6.08,0,.52,0,1,0,1.63l.66-.47A14,14,0,0,1,119.52,53a3.56,3.56,0,0,0,1.54-1.38c.19-.29.48-.55.32-1a.29.29,0,0,1,.21-.34.32.32,0,0,1,.38.12,2.84,2.84,0,0,1,.44.75.48.48,0,0,0,.73.28c.37-.17.55-.1.72.26a1.46,1.46,0,0,1,.11,1,1.85,1.85,0,0,0,.56,1.78,22.38,22.38,0,0,1,2.18,2.68.58.58,0,0,0,.43.29c.34.07.46.46.59.78a1.07,1.07,0,0,1,0,.25c.15,0,.17-.25.32-.14s.08.24.09.37a2.65,2.65,0,0,1-.39,1.54,57.26,57.26,0,0,0-3,6.49,26.22,26.22,0,0,1-2.07,3.6c-1.1,1.77-2.12,3.58-3.31,5.28a25.18,25.18,0,0,1-1.93,2.19,1.87,1.87,0,0,0-.54,1.31,2.55,2.55,0,0,1-1.14,2.28A5.87,5.87,0,0,0,114,83.81a2.49,2.49,0,0,0-.21.47,5.82,5.82,0,0,1-1.69,2.46,26.33,26.33,0,0,0-3.19,4c-1.32,1.85-2.51,3.79-3.69,5.73-.53.86-1.19,1.6-1.79,2.39-1.19,1.56-2.19,3.25-3.35,4.83a4.31,4.31,0,0,1-.58.7,23.9,23.9,0,0,0-2.25,2.67c-.21.25-.41.46-.76.39a.7.7,0,0,1-.56-.65.9.9,0,0,0-.18-.35,9.27,9.27,0,0,1-1.15-1.94,14.65,14.65,0,0,0-1.15-1.85,8.61,8.61,0,0,1-.62-1.16,28.07,28.07,0,0,0-2.43-4.64,7.7,7.7,0,0,1-.75-1.49c-.44-1-1-2-1.51-3a4.31,4.31,0,0,1-.26-.79c-.23.15-.44.33-.72.23a1.21,1.21,0,0,1-.59-.63c-.37-.68-.59-1.44-1-2.1a.17.17,0,0,1,0-.18,10.7,10.7,0,0,0,.63-1.4L87.05,89a7.83,7.83,0,0,1,.52-1.9c-.3.1-.52.19-.76.26-.61.2-.94-.07-.89-.71a2,2,0,0,1,.28-.78,20.2,20.2,0,0,0,1-2.37c0-.08.12-.19,0-.26s-.17,0-.25.09a14.05,14.05,0,0,1-2.2,1.47c-.14.06-.13.16-.13.27a.66.66,0,0,1-.47.67c-.32.1-.54-.08-.73-.33a16.89,16.89,0,0,1-1-2.08c-.38-.65-.78-1.29-1.2-1.91-.13-.2-.14-.19-.26,0l-.1.1A12.13,12.13,0,0,1,79.11,79c-.55-1-1-2.08-1.54-3.14a2.4,2.4,0,0,0-.38-.61,20.15,20.15,0,0,1-2.65-4.31c-.52-1-1-2-1.41-3.08a19.11,19.11,0,0,0-2-3.32,16.58,16.58,0,0,0-1.64-2.09c-.2-.21-.39-.44-.6-.63a14.82,14.82,0,0,1-3-4.72c-.46-1-.94-2-1.42-2.95a5.73,5.73,0,0,0-1-1.35,12.13,12.13,0,0,1-1.83-2.72,1,1,0,0,1-.12-.73.71.71,0,0,1,.61-.56.59.59,0,0,1,.65.43.59.59,0,0,0,.5.4,3.12,3.12,0,0,1,1.46.71,1.79,1.79,0,0,0,.78.28l2.58.74a11.85,11.85,0,0,1,1.67.37,44.3,44.3,0,0,0,5.16,1.54,18.39,18.39,0,0,1,2.16.75s.12.06.13,0c.37-.35.38.18.59.24.06,0,.1.1.16.14s.09.13.18.09.06-.12.06-.19c0-.26,0-.51,0-.77-.09-1.12-.1-2.26-.28-3.37a.83.83,0,0,0-.34-.58,16.73,16.73,0,0,0-5.73-3,14.34,14.34,0,0,0-2.93-.28,25,25,0,0,0-3.66.4c-.25,0-.5.07-.76.08a4.34,4.34,0,0,0-1.37.32c-1,.41-2.05.83-3.05,1.29a13.64,13.64,0,0,0-2.55,1.9,8,8,0,0,0-2.17,3.14A86.52,86.52,0,0,0,52.2,62.2c0,1.18-.63,2.24-.7,3.41a6.87,6.87,0,0,1-.35,1.29c-.2.75-.27,1.53-.54,2.26a.22.22,0,0,0,0,.21c.27.24.15.53.13.81a13.13,13.13,0,0,1-.4,2.74,18.87,18.87,0,0,0-.49,4.61,32.93,32.93,0,0,0,.1,4.66c.15,2.49.58,5,.73,7.44.13,2.19.45,4.35.71,6.52.09.73.26,1.44.4,2.15a3.94,3.94,0,0,0,.5,1.24.66.66,0,0,1-.16.86c-.27.2-.49.09-.71-.11a5.5,5.5,0,0,0-1.86-1.18,3.2,3.2,0,0,1-1.16-.87,65.34,65.34,0,0,0-6.63-5.59,1.78,1.78,0,0,0-.33-.23,18.23,18.23,0,0,1-3.93-2.88c-1.08-.84-2.12-1.73-3.16-2.63s-2-1.94-3.1-2.87a11.14,11.14,0,0,1-1-1,.32.32,0,0,0-.47-.06c-1.42.86-3,1.52-4.41,2.33-.33.19-.63.42-.94.63-1.6,1-3,2.3-4.62,3.38-1.36.93-2.6,2-3.89,3-.81.64-1.69,1.18-2.51,1.81A20.06,20.06,0,0,0,10.31,97a12.14,12.14,0,0,1-1,.93c-1.26,1.13-2.37,2.42-3.6,3.57l-.08.08c-.16.24-.37.63-.63.47a1.51,1.51,0,0,1-.66-.82,15.42,15.42,0,0,0-1.1-2.88,23.64,23.64,0,0,1-1.1-2.66c-.06-.17-.08-.32-.34-.3s-.44-.2-.51-.45a3.62,3.62,0,0,1-.2-.85A23.93,23.93,0,0,1,1,90.91a18.83,18.83,0,0,0-.13-4.8,14.23,14.23,0,0,1-.09-3.06,9.79,9.79,0,0,0-.3-3,9.77,9.77,0,0,1-.17-4.37,16.51,16.51,0,0,0,.31-5A9.21,9.21,0,0,1,.71,68.1c.16-1.14.29-2.29.41-3.44.16-1.64.21-3.3.49-4.93a40.34,40.34,0,0,1,1.51-6.68,34.84,34.84,0,0,0,1-4.17,35.66,35.66,0,0,1,2.29-7.17c1-2.3,1.65-4.75,2.65-7.05.66-1.53,1.44-3,2-4.59a27.87,27.87,0,0,1,3.11-5.7,12.06,12.06,0,0,1,1.6-1.83,12.64,12.64,0,0,0,2.33-3A16.33,16.33,0,0,1,21.65,15c.87-.81,1.86-1.49,2.66-2.38a2.14,2.14,0,0,0,.46-.77A4.24,4.24,0,0,1,26,10.19,12.15,12.15,0,0,1,29.21,8,13.5,13.5,0,0,0,31,6.83a12.3,12.3,0,0,1,2.12-1.2c1.08-.5,2.17-1,3.26-1.45a6.26,6.26,0,0,0,.91-.72,2,2,0,0,1,1.64-.4.23.23,0,0,0,.14,0c.71-.28,1.48-.4,2.16-.75a3.9,3.9,0,0,1,2.19-.56,3.78,3.78,0,0,0,1-.21A32.11,32.11,0,0,1,51,1.06,9.35,9.35,0,0,0,53.44.8,21.33,21.33,0,0,1,57.17.36C58.75.29,60.32.17,61.9.07ZM77.3,55.4l0,0,0,0-.07-.07a.16.16,0,0,0-.15-.08L77,55.17a.13.13,0,0,0-.14-.07c0-.06,0-.12-.1-.11l0,0c0,.08,0,.08.11.1a.15.15,0,0,0,.14.07l.08.07a.13.13,0,0,0,.14.07Zm-.73-.59,0,0,0,0-.07-.07-.08-.08s0,0,0,0h0l0,0,.08.08ZM4.38,97.07h0c-.06.08,0,.16,0,.24a10.6,10.6,0,0,1,.76,2.2c0,.18.1.36.14.53.16,0,.16-.28.21-.2.2.31.27,0,.34-.06,1.89-1.77,3.8-3.51,5.62-5.36,1.54-1.57,3.44-2.72,5-4.3a37.75,37.75,0,0,1,3.65-2.9,31.11,31.11,0,0,1,5.63-3.74,18.65,18.65,0,0,1,2.31-1.07,9.88,9.88,0,0,0,1.64-.86.54.54,0,0,1,.7.11c.44.43.89.86,1.31,1.32a9,9,0,0,0,1,1.06,42,42,0,0,1,3.68,3,1.79,1.79,0,0,0,.26.2c1,.77,2,1.47,2.94,2.33a6.35,6.35,0,0,0,2,1.38,2.71,2.71,0,0,1,.69.42c.63.49,1.27,1,1.88,1.49,1,.85,2.11,1.6,3.1,2.49s1.67,1.63,2.59,2.35a3.85,3.85,0,0,0,.8.48c-.12-.71-.26-1.36-.35-2a46.42,46.42,0,0,1-.44-5.66,8.68,8.68,0,0,0,0-1c-.15-1.24-.22-2.48-.41-3.72-.16-1-.19-2.08-.38-3.1a19.15,19.15,0,0,1-.34-4.06c0-1.39.11-2.79.22-4.18a23.58,23.58,0,0,1,.36-3.14,19.73,19.73,0,0,0,.45-3.5,14.08,14.08,0,0,1,.52-3.34c.32-1.17.76-2.3,1.05-3.48.55-2.25,1.64-4.31,2.38-6.5a1.82,1.82,0,0,0,.11-.3,6.09,6.09,0,0,1,.94-2.42,32.47,32.47,0,0,1,2.34-3,5.55,5.55,0,0,1,3.1-2,14,14,0,0,0,2.58-1.06,3.81,3.81,0,0,1,1.51-.37l.43,0A19.46,19.46,0,0,1,68,45c.72,0,1.43,0,2.15.1a8.35,8.35,0,0,1,1.93.3,12.62,12.62,0,0,1,4.12,1.88c.14.1.33.32.45.22s0-.36-.09-.53a10.63,10.63,0,0,0-2.32-3.11,10.47,10.47,0,0,0-2.33-1.9A16.27,16.27,0,0,0,68.26,40a7.66,7.66,0,0,0-1.39-.42c-.69-.07-1.38-.15-2.06-.19a6,6,0,0,0-1.53,0c-.78.15-1.57.19-2.34.34a11.48,11.48,0,0,0-1.94.28c-.57.23-1.17.42-1.73.67a12.08,12.08,0,0,0-3.47,2.05,9.27,9.27,0,0,0-2.43,3.09,29.79,29.79,0,0,0-1.52,4c-.55,2-1.38,4-1.74,6.05-.26,1.49-.63,3-1,4.46-.17.81-.6,1.61-.25,2.47,0,0,0,.07,0,.11,0,.44-.06.89-.12,1.34A9.42,9.42,0,0,1,46.27,67a1.07,1.07,0,0,0-.06.32c-.05,1.46-.1,2.93-.14,4.4a28,28,0,0,0,.23,3.78c.09.83.11,1.67.23,2.5.18,1.22.39,2.44.49,3.68s.18,2.59.38,3.87c.31,1.9.4,3.84.84,5.72a7,7,0,0,0,.69,2.05.66.66,0,0,1-.47,1A1,1,0,0,1,48,94a4.23,4.23,0,0,0-1.46-1A4.41,4.41,0,0,1,45,91.9a49.07,49.07,0,0,0-4.43-4,23.78,23.78,0,0,0-3.83-2.77,2.48,2.48,0,0,1-.39-.27c-.81-.62-1.49-1.39-2.31-2a54.81,54.81,0,0,1-4.93-4.32c-.78-.75-1.58-1.49-2.28-2.31-.24-.27-.44-.28-.75-.07a7.45,7.45,0,0,1-1.3.72,21.36,21.36,0,0,0-3,1.62,29.49,29.49,0,0,0-3.32,2.37c-1.19,1-2.5,1.85-3.71,2.82s-2.07,1.78-3.19,2.55a26.92,26.92,0,0,0-3.6,3c-.51.51-.9,1.12-1.44,1.59-1.18,1-2.2,2.24-3.33,3.33a.32.32,0,0,0-.09.41,22.81,22.81,0,0,0,1.12,2.34C4.22,97,4.24,97.13,4.38,97.07Zm122.4-37.45h0c0-.17.28-.23.12-.45-.32-.44-.61-.9-.94-1.34a5.26,5.26,0,0,1-.82-1.53,1.28,1.28,0,0,0-.37-.62c-.42-.37-.85-.73-1.26-1.11-.15-.15-.21-.13-.31.05a27.37,27.37,0,0,0-1.37,3c-.45,1.14-.78,2.33-1.34,3.42-.87,1.67-1.83,3.27-2.74,4.91a31.94,31.94,0,0,1-2.39,3.87c-.5.65-1.06,1.24-1.59,1.86a1.42,1.42,0,0,0-.37,1.07,2.82,2.82,0,0,1-1.15,2.54,3,3,0,0,0-1,1.11,22.76,22.76,0,0,0-1,2.13,3.78,3.78,0,0,1-.7,1.29c-.52.6-1.1,1.14-1.59,1.76A59.62,59.62,0,0,0,104.39,87c-1.16,1.83-2.07,3.81-3.41,5.52-1.07,1.38-1.93,2.89-2.88,4.34a11.38,11.38,0,0,1-1.36,2,30.69,30.69,0,0,0-2.32,2.9c-.16.18-.12.3,0,.47a8.32,8.32,0,0,1,1.07,1.73,10.67,10.67,0,0,0,.82,1.38c.15.23.28.23.44,0a2,2,0,0,0,.17-.23,8.76,8.76,0,0,1,1.57-1.86,3.67,3.67,0,0,0,.57-.67c.83-1.23,1.64-2.47,2.5-3.68.73-1,1.57-2,2.28-3,1.67-2.44,3.2-5,5-7.35a12.25,12.25,0,0,1,2.42-2.61,1.46,1.46,0,0,0,.65-.72,13.65,13.65,0,0,1,1.06-2.63,7,7,0,0,1,2.1-2.71,1.17,1.17,0,0,0,.44-1,2.28,2.28,0,0,1,.68-1.71,9.57,9.57,0,0,0,1-1.19c.86-1.3,1.76-2.57,2.56-3.91,1.92-3.21,3.92-6.37,5.76-9.64.45-.8.9-1.61,1.33-2.43C126.86,59.83,127.07,59.67,126.78,59.62ZM88.32,85.85a.71.71,0,0,1,.49.83l-.27.76A5.47,5.47,0,0,1,88,89a.55.55,0,0,0,0,.7c.86,1.77,1.89,3.46,2.67,5.26a8.66,8.66,0,0,0,1,1.77,7.64,7.64,0,0,1,1,1.54,8.61,8.61,0,0,0,.83,1.37c.25.37.33.36.59,0a1.29,1.29,0,0,0,.09-.16,7.77,7.77,0,0,1,1.32-1.69,6.11,6.11,0,0,0,1-1.19c.94-1.43,1.79-2.92,2.79-4.32.56-.77,1.16-1.52,1.67-2.34,1.58-2.5,3-5.06,4.72-7.5a12.24,12.24,0,0,1,2.35-2.63c.25-.2.56-.4.63-.73a15.16,15.16,0,0,1,1.54-3.8,4.53,4.53,0,0,1,1.24-1.47,1.44,1.44,0,0,0,.64-1.34,1.85,1.85,0,0,1,.4-1.41A29.19,29.19,0,0,0,115.78,66c1.32-2.26,2.56-4.56,3.85-6.84,1-1.74,1.9-3.53,2.83-5.3a2,2,0,0,0,.29-.8c-.45.24-.84.47-1.26.66a18.9,18.9,0,0,0-4,2.24,7.7,7.7,0,0,1-2.47,1.3,5.89,5.89,0,0,0-1.4.63,19,19,0,0,1-3.39,1.51c-.9.36-1.37-.08-1.29-1.06a22.1,22.1,0,0,1,.61-2.46c.18-.93.45-1.85.59-2.78a36.65,36.65,0,0,0,.34-6.11c0-1.77-.07-3.55-.19-5.32-.08-1.06-.3-2.12-.34-3.19a20.41,20.41,0,0,0-.76-5c-.59-2-1.28-4-2-6-.42-1.13-1-2.16-1.54-3.26a29.62,29.62,0,0,0-4.17-6.65c-1-1.18-2-2.25-3-3.41a19.67,19.67,0,0,0-3.85-3.61c-1.14-.78-2.3-1.55-3.39-2.4a14.2,14.2,0,0,0-2.3-1.54,59.33,59.33,0,0,0-6.79-2.84,18.36,18.36,0,0,0-2.61-.92c-1-.22-2-.41-3-.62A24.14,24.14,0,0,0,70,1.58a17.47,17.47,0,0,1-4.21-.24,15.58,15.58,0,0,0-3.67-.27c-1.26.07-2.52.16-3.78.22a25.92,25.92,0,0,0-4.4.33A16.16,16.16,0,0,1,50.65,2a22.67,22.67,0,0,0-4.36.29c-.26,0-.52,0-.66.34a.45.45,0,0,1-.41.2,8.06,8.06,0,0,1-1,0A2.71,2.71,0,0,0,42.92,3c-.84.34-1.68.67-2.51,1A13.71,13.71,0,0,0,39,4.64a.53.53,0,0,1-.62,0c-.05,0-.12-.08-.16-.07-.42.21-.91.11-1.34.29a30.58,30.58,0,0,0-4,1.94c-.55.34-1.12.63-1.64,1A16,16,0,0,1,29,9.21a10.79,10.79,0,0,0-3.2,2.5,1,1,0,0,0-.35.58,1.24,1.24,0,0,1-.42.83c-.38.39-.76.78-1.16,1.15-.88.79-1.82,1.51-2.64,2.36a9.5,9.5,0,0,0-1.82,2.49,11.37,11.37,0,0,1-1.7,2.7,22.88,22.88,0,0,0-2.89,3.88c-.55,1-1.08,2-1.55,3-1,2.23-2,4.49-3,6.74L9.8,36.56c.26,0,.43-.15.66-.1A15,15,0,0,0,9.58,38,20.43,20.43,0,0,1,8.37,40.5,17.93,17.93,0,0,0,6.82,44c-.17.54-.31,1.1-.52,1.63a17,17,0,0,0-.6,1.83c-.47,1.82-.81,3.68-1.39,5.48A30.31,30.31,0,0,0,3,57.83a46.57,46.57,0,0,0-.69,5c-.08,1.9-.3,3.78-.48,5.67a13.13,13.13,0,0,0-.16,2.94A8.65,8.65,0,0,1,1.65,74c-.16.94-.31,1.87-.45,2.81a6.22,6.22,0,0,0,.09,2.61,15.7,15.7,0,0,1,.53,4.73,7.41,7.41,0,0,0,0,1.49,47.84,47.84,0,0,1,.42,6.33c0,.44.07.88.1,1.31.13,0,.16-.06.22-.1.8-.69,1.5-1.49,2.28-2.21a34.53,34.53,0,0,0,2.53-2.46A13.53,13.53,0,0,1,8.75,87.1c1.53-1.34,3.14-2.57,4.59-4s3.05-2.41,4.54-3.66A29.46,29.46,0,0,1,23,76.21c.54-.28,1.1-.49,1.67-.72s1-.53,1.51-.79a.47.47,0,0,1,.61,0,22,22,0,0,1,1.56,1.64,5.67,5.67,0,0,0,.82.88,42.57,42.57,0,0,1,3.67,3c.08.08.18.13.26.2a38.15,38.15,0,0,1,3.26,2.69,5.1,5.1,0,0,0,1.54,1.1,4.65,4.65,0,0,1,1.18.78c.69.56,1.35,1.15,2.06,1.68a45.34,45.34,0,0,1,4.61,4,4.11,4.11,0,0,0,1.45,1l-.07-.39c-.13-.76-.3-1.51-.39-2.26-.21-1.89-.4-3.77-.46-5.67-.08-2.28-.56-4.51-.81-6.77-.14-1.23-.44-2.44-.5-3.68-.07-1.55.09-3.09.09-4.63a24.19,24.19,0,0,1,.2-3.06,36.81,36.81,0,0,0,.53-4.56,13.62,13.62,0,0,1,.47-3.42c.21-.86.57-1.69.74-2.56.5-2.52,1.64-4.82,2.41-7.25a4.16,4.16,0,0,0,.16-.4,6.08,6.08,0,0,1,.88-2.44A24.31,24.31,0,0,1,53,41.37,3.92,3.92,0,0,1,55.12,40a21.12,21.12,0,0,0,3.14-1.24,3.73,3.73,0,0,1,1-.29,41.08,41.08,0,0,1,4.31-.4,16.38,16.38,0,0,1,4.77.69,12.77,12.77,0,0,1,2.58,1.17c.68.45,1.37.89,2,1.37a6.41,6.41,0,0,1,2,2.05c.08.16.22.36.38.37.43,0,.56.33.73.61s.16.37.33.47a3.63,3.63,0,0,1,1.19,1.58c.26.51.4,1.08.65,1.59a20.44,20.44,0,0,1,1.13,3.64A14.89,14.89,0,0,1,79.47,55a1.58,1.58,0,0,1-.42.92.54.54,0,0,1-.62.2,14.44,14.44,0,0,1-1.67-.49,28,28,0,0,0-3.67-1.18,12.09,12.09,0,0,1-2.83-.95,12.8,12.8,0,0,0-3.17-1,10.24,10.24,0,0,1-2.69-1.22,3.41,3.41,0,0,0-.94-.45,2,2,0,0,0,.45.69,12.65,12.65,0,0,1,2,3.13C66.4,55.72,67,56.85,67.53,58A8.81,8.81,0,0,0,69,60.18c.7.72,1.41,1.44,2.08,2.2a21.14,21.14,0,0,1,3.22,4.84c.38.79.64,1.62,1.08,2.39a30.72,30.72,0,0,0,3.07,4.9A25.76,25.76,0,0,1,80.58,78a44.3,44.3,0,0,1,3.33,5.57c0,.12.1.18.24.1a17.78,17.78,0,0,0,2.22-1.32,17.29,17.29,0,0,0,1.5-1c.16-.12.33-.22.53-.1a.53.53,0,0,1,.27.53,4.51,4.51,0,0,1-.12.72c-.2.84-.49,1.65-.75,2.47-.11.26-.23.52-.35.78s0,.2.15.18ZM108.07,26c.11.25.19.44.27.64.41,1,.63,2,1,3a40.27,40.27,0,0,1,1.52,5c.21.92.21,1.86.41,2.78a30.86,30.86,0,0,1,.62,4.28c.13,2.06.15,4.13.18,6.2a35.35,35.35,0,0,1-.2,4.36,10.77,10.77,0,0,1-1,3.38A24.07,24.07,0,0,1,109.8,58a.26.26,0,0,0,0,.28c.09.12.17,0,.24,0,.25-.13.49-.29.74-.4,1.27-.53,2.44-1.27,3.73-1.75a.52.52,0,0,0,.38-.57c0-1.06.07-2.12.08-3.17,0-2.29-.06-4.57-.22-6.85a28.38,28.38,0,0,0-.52-4.95c-.53-2.16-1.19-4.28-1.91-6.38-.49-1.46-1.24-2.82-1.86-4.24a20.43,20.43,0,0,0-2-3.66C108.35,26.14,108.3,26,108.07,26ZM77.82,55.67l0,0,0,0,0,0Z" transform="translate(-0.18)" style="fill:#050502"/><path d="M80.78,81.54l.1-.1a.85.85,0,0,1,.29.65Z" transform="translate(-0.18)" style="fill:#505050"/><path d="M86.37,82.35a17.78,17.78,0,0,1-2.22,1.32c-.14.08-.19,0-.24-.1A44.3,44.3,0,0,0,80.58,78a25.76,25.76,0,0,0-2.18-3.49,30.72,30.72,0,0,1-3.07-4.9c-.44-.77-.7-1.6-1.08-2.39A21.14,21.14,0,0,0,71,62.38c-.67-.76-1.38-1.48-2.08-2.2A8.81,8.81,0,0,1,67.53,58c-.57-1.13-1.13-2.26-1.64-3.42a12.65,12.65,0,0,0-2-3.13,2,2,0,0,1-.45-.69,3.41,3.41,0,0,1,.94.45,10.24,10.24,0,0,0,2.69,1.22,12.8,12.8,0,0,1,3.17,1,12.09,12.09,0,0,0,2.83.95,28,28,0,0,1,3.67,1.18,14.44,14.44,0,0,0,1.67.49.54.54,0,0,0,.62-.2,1.58,1.58,0,0,0,.42-.92,14.89,14.89,0,0,0-.11-3.34A20.44,20.44,0,0,0,78.23,48c-.25-.51-.39-1.08-.65-1.59a3.63,3.63,0,0,0-1.19-1.58c-.17-.1-.22-.31-.33-.47s-.3-.6-.73-.61c-.16,0-.3-.21-.38-.37a6.41,6.41,0,0,0-2-2.05c-.66-.48-1.35-.92-2-1.37a12.77,12.77,0,0,0-2.58-1.17,16.38,16.38,0,0,0-4.77-.69,41.08,41.08,0,0,0-4.31.4,3.73,3.73,0,0,0-1,.29A21.12,21.12,0,0,1,55.12,40,3.92,3.92,0,0,0,53,41.37a24.31,24.31,0,0,0-2.59,3.39,6.08,6.08,0,0,0-.88,2.44,4.16,4.16,0,0,1-.16.4C48.62,50,47.48,52.33,47,54.85c-.17.87-.53,1.7-.74,2.56a13.62,13.62,0,0,0-.47,3.42,36.81,36.81,0,0,1-.53,4.56,24.19,24.19,0,0,0-.2,3.06c0,1.54-.16,3.08-.09,4.63.06,1.24.36,2.45.5,3.68.25,2.26.73,4.49.81,6.77.06,1.9.25,3.78.46,5.67.09.75.26,1.5.39,2.26l.07.39a4.11,4.11,0,0,1-1.45-1,45.34,45.34,0,0,0-4.61-4c-.71-.53-1.37-1.12-2.06-1.68a4.65,4.65,0,0,0-1.18-.78,5.1,5.1,0,0,1-1.54-1.1,38.15,38.15,0,0,0-3.26-2.69c-.08-.07-.18-.12-.26-.2a42.57,42.57,0,0,0-3.67-3,5.67,5.67,0,0,1-.82-.88,22,22,0,0,0-1.56-1.64.47.47,0,0,0-.61,0c-.5.26-1,.57-1.51.79s-1.13.44-1.67.72a29.46,29.46,0,0,0-5.1,3.23c-1.49,1.25-3.16,2.29-4.54,3.66s-3.06,2.66-4.59,4a13.53,13.53,0,0,0-1.36,1.37,34.53,34.53,0,0,1-2.53,2.46c-.78.72-1.48,1.52-2.28,2.21-.06,0-.09.12-.22.1,0-.43-.09-.87-.1-1.31a47.84,47.84,0,0,0-.42-6.33,7.41,7.41,0,0,1,0-1.49,15.7,15.7,0,0,0-.53-4.73,6.22,6.22,0,0,1-.09-2.61c.14-.94.29-1.87.45-2.81a8.65,8.65,0,0,0,.05-2.54,13.13,13.13,0,0,1,.16-2.94c.18-1.89.4-3.77.48-5.67a46.57,46.57,0,0,1,.69-5,30.31,30.31,0,0,1,1.28-4.89c.58-1.8.92-3.66,1.39-5.48a17,17,0,0,1,.6-1.83c.21-.53.35-1.09.52-1.63a17.93,17.93,0,0,1,1.55-3.5A20.43,20.43,0,0,0,9.58,38a15,15,0,0,1,.88-1.55c-.23-.05-.4.14-.66.1l.52-1.15c1-2.25,1.94-4.51,3-6.74.47-1,1-2,1.55-3a22.88,22.88,0,0,1,2.89-3.88,11.37,11.37,0,0,0,1.7-2.7,9.5,9.5,0,0,1,1.82-2.49c.82-.85,1.76-1.57,2.64-2.36.4-.37.78-.76,1.16-1.15a1.24,1.24,0,0,0,.42-.83,1,1,0,0,1,.35-.58A10.79,10.79,0,0,1,29,9.21a16,16,0,0,0,2.22-1.4c.52-.38,1.09-.67,1.64-1a30.58,30.58,0,0,1,4-1.94c.43-.18.92-.08,1.34-.29,0,0,.11,0,.16.07a.53.53,0,0,0,.62,0,13.71,13.71,0,0,1,1.37-.58c.83-.37,1.67-.7,2.51-1a2.71,2.71,0,0,1,1.32-.21,8.06,8.06,0,0,0,1,0,.45.45,0,0,0,.41-.2c.14-.31.4-.29.66-.34A22.67,22.67,0,0,1,50.65,2a16.16,16.16,0,0,0,3.25-.34,25.92,25.92,0,0,1,4.4-.33c1.26-.06,2.52-.15,3.78-.22a15.58,15.58,0,0,1,3.67.27A17.47,17.47,0,0,0,70,1.58a24.14,24.14,0,0,1,6.51.61c1,.21,2,.4,3,.62a18.36,18.36,0,0,1,2.61.92A59.33,59.33,0,0,1,88.9,6.57a14.2,14.2,0,0,1,2.3,1.54c1.09.85,2.25,1.62,3.39,2.4a19.67,19.67,0,0,1,3.85,3.61c1,1.16,2,2.23,3,3.41a29.62,29.62,0,0,1,4.17,6.65c.49,1.1,1.12,2.13,1.54,3.26.74,2,1.43,4,2,6a20.41,20.41,0,0,1,.76,5c0,1.07.26,2.13.34,3.19.12,1.77.16,3.55.19,5.32a36.65,36.65,0,0,1-.34,6.11c-.14.93-.41,1.85-.59,2.78a22.1,22.1,0,0,0-.61,2.46c-.08,1,.39,1.42,1.29,1.06a19,19,0,0,0,3.39-1.51,5.89,5.89,0,0,1,1.4-.63,7.7,7.7,0,0,0,2.47-1.3,18.9,18.9,0,0,1,4-2.24c.42-.19.81-.42,1.26-.66a2,2,0,0,1-.29.8c-.93,1.77-1.84,3.56-2.83,5.3-1.29,2.28-2.53,4.58-3.85,6.84a29.19,29.19,0,0,1-3.42,5.06,1.85,1.85,0,0,0-.4,1.41,1.44,1.44,0,0,1-.64,1.34,4.53,4.53,0,0,0-1.24,1.47,15.16,15.16,0,0,0-1.54,3.8c-.07.33-.38.53-.63.73a12.24,12.24,0,0,0-2.35,2.63c-1.67,2.44-3.14,5-4.72,7.5-.51.82-1.11,1.57-1.67,2.34-1,1.4-1.85,2.89-2.79,4.32a6.11,6.11,0,0,1-1,1.19,7.77,7.77,0,0,0-1.32,1.69,1.29,1.29,0,0,1-.09.16c-.26.36-.34.37-.59,0a8.61,8.61,0,0,1-.83-1.37,7.64,7.64,0,0,0-1-1.54,8.66,8.66,0,0,1-1-1.77c-.78-1.8-1.81-3.49-2.67-5.26a.55.55,0,0,1,0-.7,5.47,5.47,0,0,0,.56-1.56l.27-.76a1.56,1.56,0,0,1,.4.55c.21.37.42.74.64,1.1a31.81,31.81,0,0,1,1.77,3.18,2.91,2.91,0,0,0,.94,1.39,4,4,0,0,1,1,.8.51.51,0,0,0,.78,0c.11-.11.19-.15.34,0a.56.56,0,0,0,.84-.12c.41-.53,1-.89,1.38-1.44.24-.33.5-.65.76-1l2.5-3.24c1-1.3,1.82-2.72,2.78-4a47.69,47.69,0,0,0,2.46-4.21A30.53,30.53,0,0,1,107.08,77c.63-.9,1.33-1.76,2-2.66,1-1.42,1.9-2.87,2.89-4.28s1.84-2.75,2.74-4.15,1.85-2.66,2.7-4a3.59,3.59,0,0,0,.64-1.3c.14-.77-.55-2-1.67-1.66a13.23,13.23,0,0,0-2.77,1.17,1.3,1.3,0,0,1-.44.17,3.56,3.56,0,0,0-1.21.35,11.74,11.74,0,0,0-1.22.75,32.26,32.26,0,0,1-3.11,1.81,6.18,6.18,0,0,1-1.18.58,6.05,6.05,0,0,0,.45-2.32c0-1.85,0-3.69-.12-5.53-.09-1.13-.15-2.25-.24-3.37s-.11-2.44-.19-3.66-.19-2.44-.34-3.65c-.21-1.71-.52-3.42-.8-5.12-.25-1.5-.53-3-.78-4.5-.28-1.72-.77-3.39-1.16-5.09-.24-1-.54-2-.87-3.06a43.53,43.53,0,0,0-1.79-4.61,31.06,31.06,0,0,0-2.21-3.67A17.29,17.29,0,0,0,95.94,16a11.35,11.35,0,0,1-1.42-1.59c-.27-.37-.4-.84-.8-1.12-.69-.48-1.35-1-2.07-1.47s-1.34-.87-2-1.29a25.62,25.62,0,0,0-3.07-2.05l-3-1.34c-.81-.36-1.64-.7-2.47-1a14.9,14.9,0,0,0-2.75-1.18c-.56-.1-1.1-.32-1.65-.41C75.83,4.33,75,4.2,74.14,4c-.48-.08-1-.2-1.46-.24-1.16-.09-2.29-.34-3.45-.42a10.67,10.67,0,0,0-2.33,0,19.37,19.37,0,0,1-2.52.25c-.51,0-1,0-1.52,0-1.22,0-2.44.18-3.67.19-.86,0-1.72,0-2.58.07-.31,0-.62.09-.93.11a10.86,10.86,0,0,1-1.8.27,2.74,2.74,0,0,0-.64-.08c-1,.14-2,.3-3,.49s-2.1.46-3.14.73a23.37,23.37,0,0,1-2.73.73,20,20,0,0,0-2.76.74c-.71.21-1.39.54-2.1.8A11.54,11.54,0,0,0,38,8.2a29.46,29.46,0,0,0-3.29,1.61c-.73.5-1.53.89-2.24,1.41a20.83,20.83,0,0,1-2.22,1.31,8,8,0,0,0-2.4,2c-.61.76-1.3,1.43-2,2.12-.53.54-1,1.11-1.53,1.66A19.58,19.58,0,0,1,23,19.88a14.14,14.14,0,0,0-2.15,2.67A9.55,9.55,0,0,1,20,23.8a12.91,12.91,0,0,0-1.4,1.9c-.75,1.12-1.47,2.27-2.17,3.43-.51.84-1,1.71-1.43,2.58s-.78,1.67-1.21,2.48a39.44,39.44,0,0,0-1.89,4c-.55,1.37-1.06,2.76-1.57,4.14-.7,1.87-1.21,3.8-1.78,5.71-.1.35-.16.71-.25,1.06-.18.72-.36,1.45-.53,2.18-.12.51-.23,1-.34,1.55s-.24,1.33-.42,2S6.71,56.24,6.51,57s-.39,1.62-.57,2.44c-.23,1-.49,2.07-.66,3.12-.12.75-.25,1.5-.35,2.25s-.15,1.54-.25,2.31-.12,1.49-.16,2.24c-.06,1.11-.18,2.22-.28,3.33,0,.62-.1,1.25-.16,1.87-.09,1-.21,2.1-.26,3.15a19.23,19.23,0,0,0,.28,4.08c.1.6.59,1.29,1.3,1.16A6.53,6.53,0,0,0,7,82.51c1-.5,2-1.08,3-1.64a15.59,15.59,0,0,0,2-1.12c.57-.43,1.16-.83,1.73-1.24l1.3-.93a22.27,22.27,0,0,1,2.07-1.47c1.2-.68,2.37-1.4,3.56-2.11s2.22-1.28,3.33-1.91l1.76-1c.55-.32,1.05-.72,1.63-1,.17-.08.29-.11.4.08a1,1,0,0,0,.22.24c.41.4.83.78,1.21,1.2S30,72.5,30.38,73s.89.85,1.29,1.33a11.66,11.66,0,0,0,1.45,1.53c1.45,1.27,2.89,2.55,4.29,3.88.89.85,1.74,1.75,2.62,2.62.57.56,1.19,1.07,1.78,1.61a1,1,0,0,0,.61.3,1.35,1.35,0,0,0,1.35-1.62c-.07-.35-.32-.63-.33-1a17.08,17.08,0,0,0-.32-2.26c-.09-.56-.22-1.11-.27-1.68-.09-.87-.15-1.74-.31-2.59A28,28,0,0,1,42.15,71a32.63,32.63,0,0,1,.1-4.94c.16-1.42.14-2.86.25-4.28A16.34,16.34,0,0,1,42.67,60c.21-1,.42-2.06.53-3.11.15-1.47.56-2.89.81-4.34A13.61,13.61,0,0,1,44.88,50,33.4,33.4,0,0,1,47,45.21a5.47,5.47,0,0,1,.41-.65c.42-.54.83-1.1,1.28-1.62a10.32,10.32,0,0,1,1.44-1.58q.8-.61,1.53-1.29A29,29,0,0,1,55,37.47a15,15,0,0,1,3.49-1.92c.76-.27,1.5-.62,2.28-.83a12.48,12.48,0,0,1,2-.29,9.23,9.23,0,0,1,2.57.08c.77.12,1.54.27,2.32.37,1.06.13,2.09.4,3.12.63a9.1,9.1,0,0,1,2.18,1,9.53,9.53,0,0,1,2.74,2c.55.63,1.11,1.26,1.71,1.84a3.27,3.27,0,0,1,.41.51,21.33,21.33,0,0,1,1.72,3.65c.54,1.33,1,2.71,1.4,4.08.3.93.55,1.88.8,2.83.13.52.19,1.07.32,1.6a11.53,11.53,0,0,1,.45,2.86c0,.53.07,1.06.13,1.58s0,.48-.43.4c-.91-.17-1.83-.3-2.74-.48-.4-.08-.82,0-1.2-.09A7,7,0,0,0,76.14,57a2.92,2.92,0,0,1-.51,0c-.65-.1-1.27-.52-2-.18a.41.41,0,0,1-.22,0,4.08,4.08,0,0,1-1.37-.44.28.28,0,0,0-.37,0,.26.26,0,0,0,0,.36,7.57,7.57,0,0,0,.49.76c.24.34.61.57.8.95a6.66,6.66,0,0,0,1,1.45,11.25,11.25,0,0,1,1.45,2c.88,1.66,1.72,3.34,2.59,5a38.59,38.59,0,0,0,2.16,3.66A32.27,32.27,0,0,1,83,75.84c.29.7.73,1.34,1.08,2s1.05,1.48,1.42,2.32S86.09,81.62,86.37,82.35Z" transform="translate(-0.18)" style="fill:#fdd901"/><path d="M86.37,82.35c-.28-.73-.53-1.46-.85-2.17s-1-1.51-1.42-2.32-.79-1.32-1.08-2a32.27,32.27,0,0,0-2.83-5.32A38.59,38.59,0,0,1,78,66.86c-.87-1.67-1.71-3.35-2.59-5a11.25,11.25,0,0,0-1.45-2,6.66,6.66,0,0,1-1-1.45c-.19-.38-.56-.61-.8-.95a7.57,7.57,0,0,1-.49-.76.26.26,0,0,1,0-.36.28.28,0,0,1,.37,0,4.08,4.08,0,0,0,1.37.44.41.41,0,0,0,.22,0c.69-.34,1.31.08,2,.18a2.92,2.92,0,0,0,.51,0,7,7,0,0,1,2.18.27c.38.11.8,0,1.2.09.91.18,1.83.31,2.74.48.41.08.48,0,.43-.4s-.12-1-.13-1.58A11.53,11.53,0,0,0,82.11,53c-.13-.53-.19-1.08-.32-1.6-.25-.95-.5-1.9-.8-2.83-.44-1.37-.86-2.75-1.4-4.08a21.33,21.33,0,0,0-1.72-3.65,3.27,3.27,0,0,0-.41-.51c-.6-.58-1.16-1.21-1.71-1.84a9.53,9.53,0,0,0-2.74-2,9.1,9.1,0,0,0-2.18-1c-1-.23-2.06-.5-3.12-.63-.78-.1-1.55-.25-2.32-.37a9.23,9.23,0,0,0-2.57-.08,12.48,12.48,0,0,0-2,.29c-.78.21-1.52.56-2.28.83A15,15,0,0,0,55,37.47a29,29,0,0,0-3.34,2.6q-.73.68-1.53,1.29a10.32,10.32,0,0,0-1.44,1.58c-.45.52-.86,1.08-1.28,1.62a5.47,5.47,0,0,0-.41.65A33.4,33.4,0,0,0,44.88,50,13.61,13.61,0,0,0,44,52.51c-.25,1.45-.66,2.87-.81,4.34-.11,1-.32,2.08-.53,3.11a16.34,16.34,0,0,0-.17,1.84c-.11,1.42-.09,2.86-.25,4.28a32.63,32.63,0,0,0-.1,4.94,28,28,0,0,0,.39,4.08c.16.85.22,1.72.31,2.59,0,.57.18,1.12.27,1.68a17.08,17.08,0,0,1,.32,2.26c0,.35.26.63.33,1a1.35,1.35,0,0,1-1.35,1.62,1,1,0,0,1-.61-.3c-.59-.54-1.21-1.05-1.78-1.61-.88-.87-1.73-1.77-2.62-2.62-1.4-1.33-2.84-2.61-4.29-3.88a11.66,11.66,0,0,1-1.45-1.53c-.4-.48-.89-.86-1.29-1.33s-.77-.93-1.19-1.37-.8-.8-1.21-1.2a1,1,0,0,1-.22-.24c-.11-.19-.23-.16-.4-.08-.58.28-1.08.68-1.63,1l-1.76,1c-1.11.63-2.23,1.26-3.33,1.91s-2.36,1.43-3.56,2.11A22.27,22.27,0,0,0,15,77.58l-1.3.93c-.57.41-1.16.81-1.73,1.24a15.59,15.59,0,0,1-2,1.12C9,81.43,8,82,7,82.51a6.53,6.53,0,0,1-1.55.39c-.71.13-1.2-.56-1.3-1.16a19.23,19.23,0,0,1-.28-4.08c.05-1,.17-2.1.26-3.15.06-.62.11-1.25.16-1.87.1-1.11.22-2.22.28-3.33,0-.75.06-1.5.16-2.24s.15-1.54.25-2.31.23-1.5.35-2.25c.17-1,.43-2.08.66-3.12.18-.82.36-1.63.57-2.44s.33-1.43.53-2.14.28-1.32.42-2,.22-1,.34-1.55c.17-.73.35-1.46.53-2.18.09-.35.15-.71.25-1.06.57-1.91,1.08-3.84,1.78-5.71.51-1.38,1-2.77,1.57-4.14a39.44,39.44,0,0,1,1.89-4c.43-.81.79-1.66,1.21-2.48S16,30,16.46,29.13c.7-1.16,1.42-2.31,2.17-3.43A12.91,12.91,0,0,1,20,23.8a9.55,9.55,0,0,0,.81-1.25A14.14,14.14,0,0,1,23,19.88a19.58,19.58,0,0,0,1.4-1.62c.51-.55,1-1.12,1.53-1.66.66-.69,1.35-1.36,2-2.12a8,8,0,0,1,2.4-2,20.83,20.83,0,0,0,2.22-1.31c.71-.52,1.51-.91,2.24-1.41A29.46,29.46,0,0,1,38,8.2a11.54,11.54,0,0,1,1.44-.47c.71-.26,1.39-.59,2.1-.8a20,20,0,0,1,2.76-.74,23.37,23.37,0,0,0,2.73-.73c1-.27,2.08-.53,3.14-.73s2-.35,3-.49a2.74,2.74,0,0,1,.64.08,10.86,10.86,0,0,0,1.8-.27c.31,0,.62-.09.93-.11.86,0,1.72-.06,2.58-.07,1.23,0,2.45-.16,3.67-.19.5,0,1,0,1.52,0A19.37,19.37,0,0,0,66.9,3.4a10.67,10.67,0,0,1,2.33,0c1.16.08,2.29.33,3.45.42.49,0,1,.16,1.46.24.84.16,1.69.29,2.54.42.55.09,1.09.31,1.65.41a14.9,14.9,0,0,1,2.75,1.18c.83.34,1.66.68,2.47,1l3,1.34a25.62,25.62,0,0,1,3.07,2.05c.68.42,1.34.87,2,1.29s1.38,1,2.07,1.47c.4.28.53.75.8,1.12A11.35,11.35,0,0,0,95.94,16a17.29,17.29,0,0,1,2.41,3.18,31.06,31.06,0,0,1,2.21,3.67,43.53,43.53,0,0,1,1.79,4.61c.33,1,.63,2,.87,3.06.39,1.7.88,3.37,1.16,5.09.25,1.5.53,3,.78,4.5.28,1.7.59,3.41.8,5.12.15,1.21.26,2.43.34,3.65s.09,2.44.19,3.66.15,2.24.24,3.37c.13,1.84.15,3.68.12,5.53a6.05,6.05,0,0,1-.45,2.32,6.18,6.18,0,0,0,1.18-.58,32.26,32.26,0,0,0,3.11-1.81,11.74,11.74,0,0,1,1.22-.75,3.56,3.56,0,0,1,1.21-.35,1.3,1.3,0,0,0,.44-.17,13.23,13.23,0,0,1,2.77-1.17c1.12-.34,1.81.89,1.67,1.66a3.59,3.59,0,0,1-.64,1.3c-.85,1.38-1.82,2.68-2.7,4s-1.79,2.8-2.74,4.15S110,72.89,109,74.31c-.62.9-1.32,1.76-2,2.66a30.53,30.53,0,0,0-1.68,2.66,47.69,47.69,0,0,1-2.46,4.21c-1,1.32-1.78,2.74-2.78,4l-2.5,3.24c-.26.33-.52.65-.76,1-.39.55-1,.91-1.38,1.44a.56.56,0,0,1-.84.12c-.15-.1-.23-.06-.34,0a.51.51,0,0,1-.78,0,4,4,0,0,0-1-.8,2.91,2.91,0,0,1-.94-1.39,31.81,31.81,0,0,0-1.77-3.18c-.22-.36-.43-.73-.64-1.1a1.56,1.56,0,0,0-.4-.55.71.71,0,0,0-.49-.83c-.14-.32-.4-.57-.52-.91.26-.82.55-1.63.75-2.47a4.51,4.51,0,0,0,.12-.72.53.53,0,0,0-.27-.53c-.2-.12-.37,0-.53.1A17.29,17.29,0,0,1,86.37,82.35ZM40.49,79.06c-.15-1.07-.31-2-.43-3-.15-1.16-.36-2.31-.52-3.47-.19-1.44-.1-2.88-.15-4.32a19.2,19.2,0,0,1,.17-2.93c.14-1.35.21-2.7.3-4.05a20.57,20.57,0,0,1,.48-2.93c.19-.9.4-1.79.62-2.68.24-1.05.42-2.12.76-3.14.27-.83.56-1.65.84-2.47a.57.57,0,0,0,0-.46,2,2,0,0,1-.08-1.25A11.67,11.67,0,0,1,44,44.55a28.44,28.44,0,0,1,1.81-2.8,23.13,23.13,0,0,1,1.73-2.19,35.6,35.6,0,0,1,3.07-2.83A24.5,24.5,0,0,1,54.38,34a14.58,14.58,0,0,1,1.76-1c.81-.34,1.61-.72,2.43-1a12.12,12.12,0,0,1,2-.6c.56-.1,1.12-.15,1.69-.22a11,11,0,0,1,2.87,0c1.56.22,3.1.51,4.64.79a10.84,10.84,0,0,1,2.76.75,20,20,0,0,1,3.4,1.94A10.8,10.8,0,0,1,77.54,36c.47.52.88,1.11,1.39,1.58a8.71,8.71,0,0,1,2,3,35.24,35.24,0,0,1,1.44,3.61c.47,1.47,1,2.94,1.39,4.43.5,1.66.75,3.37,1.12,5.06a19.47,19.47,0,0,1,.22,3.15,7.14,7.14,0,0,0,.45,2.59,3,3,0,0,1,.12,1.67c0,.2-.14.39-.37.39a5.53,5.53,0,0,1-2.06-.2,25.52,25.52,0,0,0-2.77-.52c-.62-.15-1.27-.07-1.9-.25-.1,0-.22-.1-.3,0s0,.21.08.3c.42.73.85,1.44,1.26,2.17A51.9,51.9,0,0,0,82.4,67.6,36.22,36.22,0,0,1,85,72c.8,1.55,1.46,3.17,2.31,4.7.67,1.21,1.26,2.49,2,3.67a49.51,49.51,0,0,1,2.25,4.71c.33.69.67,1.38,1,2.06a9.29,9.29,0,0,1,1.33,2.65.14.14,0,0,0,.12.13c.32-.46.64-.93.94-1.42.84-1.35,1.92-2.54,2.76-3.91a4.26,4.26,0,0,1,.5-.75,12.34,12.34,0,0,0,1-1.47c.39-.56.77-1.14,1.2-1.67.84-1,1.62-2.11,2.4-3.19.64-.87,1.2-1.8,1.84-2.66s1.42-1.89,2-2.91c.94-1.55,2-3,3-4.57L111.23,65c.25-.39.49-.78.77-1.14,0-.06.13-.11.06-.18s-.15,0-.22,0a16.45,16.45,0,0,1-3.37,1.91,8.33,8.33,0,0,0-1.57.81c-.29.2-.62.34-.93.52a.77.77,0,0,1-.7.08c-.33-.18-.48,0-.67.2s-.71.21-.78-.18a2.67,2.67,0,0,1-.09-1,11.53,11.53,0,0,0,.14-1.85,7.09,7.09,0,0,1,.29-1.89,6.21,6.21,0,0,0,.21-1.54,80,80,0,0,0-.27-8.62c-.13-1.34-.12-2.7-.23-4.06-.09-1.12-.21-2.24-.37-3.35-.21-1.37-.44-2.74-.66-4.11-.09-.57-.19-1.14-.29-1.71-.17-1-.33-2-.5-3s-.42-2-.67-3c-.29-1.2-.56-2.4-.91-3.59A39.33,39.33,0,0,0,99,25.33a16.23,16.23,0,0,0-1.29-2.61c-.78-1.21-1.53-2.44-2.36-3.62-.35-.51-.64-1.09-1.28-1.34-.16-.06-.26-.25-.38-.39A6.34,6.34,0,0,0,92.6,16.1c-1.08-.74-2.13-1.52-3.23-2.23-.55-.37-1.13-.7-1.68-1.08s-.77-.67-1.2-.93a39.55,39.55,0,0,0-4.27-2c-.8-.36-1.62-.7-2.43-1a12.5,12.5,0,0,0-2.14-.88q-1.09-.27-2.19-.48c-.8-.15-1.59-.3-2.39-.43-.53-.09-1.08-.12-1.61-.19-1-.12-2-.29-3-.32s-2.23.23-3.35.28l-3.62.14c-1.13,0-2.26.17-3.38.12-1.34-.06-2.62.37-4,.37a12.74,12.74,0,0,0-1.89.29c-.61.1-1.21.21-1.82.33s-1.46.31-2.18.51a16.83,16.83,0,0,0-1.81.51c-.64.25-1.34.28-2,.47s-1,.34-1.52.46a26.59,26.59,0,0,0-3.38,1.2,16.73,16.73,0,0,0-3.19,1.47c-.69.44-1.41.84-2.09,1.3a18.88,18.88,0,0,1-1.91,1.18A7.34,7.34,0,0,0,30,16.83a19.92,19.92,0,0,1-1.53,1.65c-.18.18-.39.33-.56.52-.83.9-1.63,1.83-2.46,2.72a19.91,19.91,0,0,0-2.3,2.8c-.35.55-.63,1.14-1,1.67A16.19,16.19,0,0,0,21,28,12,12,0,0,1,20,29.4a15.19,15.19,0,0,0-1.14,1.73c-.44.76-.86,1.54-1.25,2.33-.7,1.38-1.45,2.75-2.12,4.14-.52,1.06-.94,2.15-1.36,3.25-.62,1.63-1.23,3.26-1.73,4.93-.41,1.4-.84,2.8-1.14,4.23s-.65,2.61-.9,3.92S9.8,56.65,9.5,58c-.17.77-.4,1.52-.57,2.29-.28,1.29-.55,2.6-.81,3.9a26.17,26.17,0,0,0-.37,3c-.06.65-.06,1.31-.18,2-.19,1.14-.18,2.29-.39,3.42s-.27,2-.39,3.06a24.61,24.61,0,0,0-.28,3.54c0,.1-.06.25.06.3s.19-.1.28-.14.08-.07.12-.09a19.06,19.06,0,0,1,1.62-1.22,13.53,13.53,0,0,0,1.81-1.15c1.31-1,2.76-1.91,4.06-3a24.74,24.74,0,0,1,2.82-1.65c1.16-.72,2.35-1.38,3.53-2.07.58-.34,1.16-.7,1.75-1,.92-.51,1.81-1.06,2.71-1.6a2.19,2.19,0,0,1,1.8-.48.41.41,0,0,0,.22,0,2,2,0,0,1,1.54.41,12.65,12.65,0,0,1,1.76,1.67c1.3,1.51,2.66,3,4.05,4.37,1,1.08,2.23,2,3.31,3.06a16,16,0,0,1,1.64,1.54A3.9,3.9,0,0,0,40.49,79.06Z" transform="translate(-0.18)" style="fill:#fe9c01"/><path d="M48.46,94.31a.66.66,0,0,0,.47-1,7,7,0,0,1-.69-2.05c-.44-1.88-.53-3.82-.84-5.72-.2-1.28-.28-2.58-.38-3.87s-.31-2.46-.49-3.68c-.12-.83-.14-1.67-.23-2.5a28,28,0,0,1-.23-3.78c0-1.47.09-2.94.14-4.4a1.07,1.07,0,0,1,.06-.32,9.42,9.42,0,0,0,.51-2.67c.06-.45.08-.9.12-1.34,0,0,0-.08,0-.11-.35-.86.08-1.66.25-2.47.32-1.48.69-3,1-4.46.36-2.09,1.19-4,1.74-6.05a29.79,29.79,0,0,1,1.52-4,9.27,9.27,0,0,1,2.43-3.09,12.08,12.08,0,0,1,3.47-2.05c.56-.25,1.16-.44,1.73-.67a11.48,11.48,0,0,1,1.94-.28c.77-.15,1.56-.19,2.34-.34a6,6,0,0,1,1.53,0c.68,0,1.37.12,2.06.19a7.66,7.66,0,0,1,1.39.42,16.27,16.27,0,0,1,3.6,1.89,10.47,10.47,0,0,1,2.33,1.9,10.63,10.63,0,0,1,2.32,3.11c.07.17.24.4.09.53s-.31-.12-.45-.22A12.62,12.62,0,0,0,72,45.36a8.35,8.35,0,0,0-1.93-.3C69.38,45,68.67,45,68,45a19.46,19.46,0,0,0-3.32.33l-.43,0a3.81,3.81,0,0,0-1.51.37,14,14,0,0,1-2.58,1.06,5.55,5.55,0,0,0-3.1,2,32.47,32.47,0,0,0-2.34,3,6.09,6.09,0,0,0-.94,2.42,1.82,1.82,0,0,1-.11.3c-.74,2.19-1.83,4.25-2.38,6.5-.29,1.18-.73,2.31-1.05,3.48a14.08,14.08,0,0,0-.52,3.34,19.73,19.73,0,0,1-.45,3.5,23.58,23.58,0,0,0-.36,3.14c-.11,1.39-.19,2.79-.22,4.18A19.15,19.15,0,0,0,49,82.65c.19,1,.22,2.07.38,3.1.19,1.24.26,2.48.41,3.72a8.68,8.68,0,0,1,0,1,46.42,46.42,0,0,0,.44,5.66c.09.66.23,1.31.35,2a3.85,3.85,0,0,1-.8-.48,1.12,1.12,0,0,0-.18-.62A18.43,18.43,0,0,1,48.46,94.31Z" transform="translate(-0.18)" style="fill:#7b571e"/><path d="M126.78,59.62c.29.05.08.21,0,.28-.43.82-.88,1.63-1.33,2.43-1.84,3.27-3.84,6.43-5.76,9.64-.8,1.34-1.7,2.61-2.56,3.91a9.57,9.57,0,0,1-1,1.19,2.28,2.28,0,0,0-.68,1.71,1.17,1.17,0,0,1-.44,1,7,7,0,0,0-2.1,2.71,13.65,13.65,0,0,0-1.06,2.63,1.46,1.46,0,0,1-.65.72,12.25,12.25,0,0,0-2.42,2.61c-1.75,2.38-3.28,4.91-5,7.35-.71,1-1.55,2-2.28,3-.86,1.21-1.67,2.45-2.5,3.68a3.67,3.67,0,0,1-.57.67,8.76,8.76,0,0,0-1.57,1.86,2,2,0,0,1-.17.23c-.16.21-.29.21-.44,0a10.67,10.67,0,0,1-.82-1.38,8.32,8.32,0,0,0-1.07-1.73c-.13-.17-.17-.29,0-.47a30.69,30.69,0,0,1,2.32-2.9,11.38,11.38,0,0,0,1.36-2c1-1.45,1.81-3,2.88-4.34,1.34-1.71,2.25-3.69,3.41-5.52A59.62,59.62,0,0,1,108,81.61c.49-.62,1.07-1.16,1.59-1.76a3.78,3.78,0,0,0,.7-1.29,22.76,22.76,0,0,1,1-2.13,3,3,0,0,1,1-1.11,2.82,2.82,0,0,0,1.15-2.54,1.42,1.42,0,0,1,.37-1.07c.53-.62,1.09-1.21,1.59-1.86A31.94,31.94,0,0,0,117.75,66c.91-1.64,1.87-3.24,2.74-4.91.56-1.09.89-2.28,1.34-3.42a27.37,27.37,0,0,1,1.37-3c.1-.18.16-.2.31-.05.41.38.84.74,1.26,1.11a1.28,1.28,0,0,1,.37.62,5.26,5.26,0,0,0,.82,1.53c.33.44.62.9.94,1.34.16.22-.15.28-.12.45l0,0Z" transform="translate(-0.18)" style="fill:#b77307"/><path d="M48.46,94.31a18.43,18.43,0,0,0,1.14,2.76,1.12,1.12,0,0,1,.18.62c-.92-.72-1.72-1.57-2.59-2.35s-2.08-1.64-3.1-2.49c-.61-.52-1.25-1-1.88-1.49a2.71,2.71,0,0,0-.69-.42,6.35,6.35,0,0,1-2-1.38c-.91-.86-2-1.56-2.94-2.33a1.79,1.79,0,0,1-.26-.2,42,42,0,0,0-3.68-3,9,9,0,0,1-1-1.06c-.42-.46-.87-.89-1.31-1.32a.54.54,0,0,0-.7-.11,9.88,9.88,0,0,1-1.64.86,18.65,18.65,0,0,0-2.31,1.07,31.11,31.11,0,0,0-5.63,3.74,37.75,37.75,0,0,0-3.65,2.9c-1.55,1.58-3.45,2.73-5,4.3C9.65,96.28,7.74,98,5.85,99.79c-.07,0-.14.37-.34.06,0-.08,0,.18-.21.2,0-.17-.09-.35-.14-.53a10.6,10.6,0,0,0-.76-2.2c0-.08-.08-.16,0-.25a2.87,2.87,0,0,0,.34-1.31,3,3,0,0,0-.34,1.31c-.14.06-.16-.08-.19-.15a22.81,22.81,0,0,1-1.12-2.34.32.32,0,0,1,.09-.41c1.13-1.09,2.15-2.29,3.33-3.33.54-.47.93-1.08,1.44-1.59a26.92,26.92,0,0,1,3.6-3c1.12-.77,2.12-1.7,3.19-2.55s2.52-1.82,3.71-2.82a29.49,29.49,0,0,1,3.32-2.37,21.36,21.36,0,0,1,3-1.62,7.45,7.45,0,0,0,1.3-.72c.31-.21.51-.2.75.07.7.82,1.5,1.56,2.28,2.31A54.81,54.81,0,0,0,34,82.9c.82.61,1.5,1.38,2.31,2a2.48,2.48,0,0,0,.39.27,23.78,23.78,0,0,1,3.83,2.77,49.07,49.07,0,0,1,4.43,4A4.41,4.41,0,0,0,46.56,93,4.23,4.23,0,0,1,48,94,1,1,0,0,0,48.46,94.31Z" transform="translate(-0.18)" style="fill:#b77307"/><path d="M108.07,26c.23,0,.28.16.36.26a20.43,20.43,0,0,1,2,3.66c.62,1.42,1.37,2.78,1.86,4.24.72,2.1,1.38,4.22,1.91,6.38a28.38,28.38,0,0,1,.52,4.95c.16,2.28.24,4.56.22,6.85,0,1-.06,2.11-.08,3.17a.52.52,0,0,1-.38.57c-1.29.48-2.46,1.22-3.73,1.75-.25.11-.49.27-.74.4-.07,0-.15.16-.24,0a.26.26,0,0,1,0-.28,24.07,24.07,0,0,0,1.1-2.29,10.77,10.77,0,0,0,1-3.38,35.35,35.35,0,0,0,.2-4.36c0-2.07,0-4.14-.18-6.2a30.86,30.86,0,0,0-.62-4.28c-.2-.92-.2-1.86-.41-2.78a40.27,40.27,0,0,0-1.52-5c-.38-1-.6-2.05-1-3C108.26,26.42,108.18,26.23,108.07,26Z" transform="translate(-0.18)" style="fill:#b67207"/><path d="M87.8,84.94c.12.34.38.59.52.91l-.72.05c-.14,0-.21,0-.15-.18S87.69,85.2,87.8,84.94Z" transform="translate(-0.18)" style="fill:#f2cd01"/><path d="M76.86,55.11c-.06,0-.12,0-.11-.1l0,0c.08,0,.09,0,.1.11Z" transform="translate(-0.18)" style="fill:#262100"/><path d="M76.87,55.1a.13.13,0,0,1,.14.07h0a.15.15,0,0,1-.14-.07Z" transform="translate(-0.18)" style="fill:#262100"/><path d="M77.08,55.24a.16.16,0,0,1,.15.08h0a.13.13,0,0,1-.14-.07Z" transform="translate(-0.18)" style="fill:#262100"/><path d="M77.82,55.67h0l0,0,0,0Z" transform="translate(-0.18)" style="fill:#262100"/><path d="M76.42,54.66l0,0h0s0,0,0,0Z" transform="translate(-0.18)" style="fill:#262100"/><path d="M76.42,54.66l.08.08h0l-.08-.08Z" transform="translate(-0.18)" style="fill:#262100"/><path d="M76.5,54.74l.07.07h0l-.07-.07Z" transform="translate(-0.18)" style="fill:#262100"/><path d="M76.57,54.81l0,0,0,0Z" transform="translate(-0.18)" style="fill:#262100"/><path d="M77.08,55.25,77,55.18h0l.07.07Z" transform="translate(-0.18)" style="fill:#262100"/><path d="M77.23,55.32l.07.07h0l-.08-.08Z" transform="translate(-0.18)" style="fill:#262100"/><path d="M77.3,55.39l0,0,0,0Z" transform="translate(-0.18)" style="fill:#262100"/><path d="M40.49,79.06a3.9,3.9,0,0,1-.9-.92A16,16,0,0,0,38,76.6c-1.08-1-2.26-2-3.31-3.06-1.39-1.42-2.75-2.86-4.05-4.37a12.65,12.65,0,0,0-1.76-1.67,2,2,0,0,0-1.54-.41.41.41,0,0,1-.22,0,2.19,2.19,0,0,0-1.8.48c-.9.54-1.79,1.09-2.71,1.6-.59.33-1.17.69-1.75,1-1.18.69-2.37,1.35-3.53,2.07a24.74,24.74,0,0,0-2.82,1.65c-1.3,1.07-2.75,1.93-4.06,3a13.53,13.53,0,0,1-1.81,1.15A19.06,19.06,0,0,0,7,79.28s-.07.07-.12.09-.17.18-.28.14-.06-.2-.06-.3a24.61,24.61,0,0,1,.28-3.54c.12-1,.2-2,.39-3.06s.2-2.28.39-3.42c.12-.64.12-1.3.18-2a26.17,26.17,0,0,1,.37-3c.26-1.3.53-2.61.81-3.9.17-.77.4-1.52.57-2.29.3-1.35.64-2.7.9-4.07s.63-2.61.9-3.92.73-2.83,1.14-4.23c.5-1.67,1.11-3.3,1.73-4.93.42-1.1.84-2.19,1.36-3.25.67-1.39,1.42-2.76,2.12-4.14.39-.79.81-1.57,1.25-2.33A15.19,15.19,0,0,1,20,29.4,12,12,0,0,0,21,28a16.19,16.19,0,0,1,1.2-1.77c.39-.53.67-1.12,1-1.67a19.91,19.91,0,0,1,2.3-2.8c.83-.89,1.63-1.82,2.46-2.72.17-.19.38-.34.56-.52A19.92,19.92,0,0,0,30,16.83a7.34,7.34,0,0,1,2.35-1.7A18.88,18.88,0,0,0,34.28,14c.68-.46,1.4-.86,2.09-1.3a16.73,16.73,0,0,1,3.19-1.47A26.59,26.59,0,0,1,42.94,10c.51-.12,1-.31,1.52-.46s1.36-.22,2-.47a16.83,16.83,0,0,1,1.81-.51c.72-.2,1.45-.35,2.18-.51s1.21-.23,1.82-.33a12.74,12.74,0,0,1,1.89-.29c1.33,0,2.61-.43,4-.37,1.12,0,2.25-.07,3.38-.12l3.62-.14c1.12,0,2.22-.32,3.35-.28s2,.2,3,.32c.53.07,1.08.1,1.61.19.8.13,1.59.28,2.39.43s1.46.3,2.19.48a12.5,12.5,0,0,1,2.14.88c.81.35,1.63.69,2.43,1a39.55,39.55,0,0,1,4.27,2c.43.26.79.63,1.2.93s1.13.71,1.68,1.08c1.1.71,2.15,1.49,3.23,2.23a6.34,6.34,0,0,1,1.12,1.27c.12.14.22.33.38.39.64.25.93.83,1.28,1.34.83,1.18,1.58,2.41,2.36,3.62A16.23,16.23,0,0,1,99,25.33a39.33,39.33,0,0,1,1.44,4.07c.35,1.19.62,2.39.91,3.59.25,1,.5,2,.67,3s.33,2,.5,3c.1.57.2,1.14.29,1.71.22,1.37.45,2.74.66,4.11.16,1.11.28,2.23.37,3.35.11,1.36.1,2.72.23,4.06a80,80,0,0,1,.27,8.62,6.21,6.21,0,0,1-.21,1.54,7.09,7.09,0,0,0-.29,1.89,11.53,11.53,0,0,1-.14,1.85,2.67,2.67,0,0,0,.09,1c.07.39.49.47.78.18s.34-.38.67-.2A.77.77,0,0,0,106,67c.31-.18.64-.32.93-.52a8.33,8.33,0,0,1,1.57-.81,16.45,16.45,0,0,0,3.37-1.91c.07,0,.15-.13.22,0s0,.12-.06.18c-.28.36-.52.75-.77,1.14l-1.57,2.39c-1,1.52-2,3-3,4.57-.62,1-1.34,2-2,2.91s-1.2,1.79-1.84,2.66c-.78,1.08-1.56,2.15-2.4,3.19-.43.53-.81,1.11-1.2,1.67a12.34,12.34,0,0,1-1,1.47,4.26,4.26,0,0,0-.5.75C96.87,86,95.79,87.17,95,88.52c-.3.49-.62,1-.94,1.42a.14.14,0,0,1-.12-.13,9.29,9.29,0,0,0-1.33-2.65c-.35-.68-.69-1.37-1-2.06a49.51,49.51,0,0,0-2.25-4.71c-.73-1.18-1.32-2.46-2-3.67-.85-1.53-1.51-3.15-2.31-4.7A36.22,36.22,0,0,0,82.4,67.6,51.9,51.9,0,0,1,79.62,63c-.41-.73-.84-1.44-1.26-2.17,0-.09-.15-.19-.08-.3s.2,0,.3,0c.63.18,1.28.1,1.9.25a25.52,25.52,0,0,1,2.77.52,5.53,5.53,0,0,0,2.06.2c.23,0,.34-.19.37-.39a3,3,0,0,0-.12-1.67,7.14,7.14,0,0,1-.45-2.59,19.47,19.47,0,0,0-.22-3.15c-.37-1.69-.62-3.4-1.12-5.06-.44-1.49-.92-3-1.39-4.43a35.24,35.24,0,0,0-1.44-3.61,8.71,8.71,0,0,0-2-3c-.51-.47-.92-1.06-1.39-1.58a10.8,10.8,0,0,0-1.64-1.38,20,20,0,0,0-3.4-1.94,10.84,10.84,0,0,0-2.76-.75c-1.54-.28-3.08-.57-4.64-.79a11,11,0,0,0-2.87,0c-.57.07-1.13.12-1.69.22a12.12,12.12,0,0,0-2,.6c-.82.3-1.62.68-2.43,1a14.58,14.58,0,0,0-1.76,1,24.5,24.5,0,0,0-3.75,2.74,35.6,35.6,0,0,0-3.07,2.83,23.13,23.13,0,0,0-1.73,2.19A28.44,28.44,0,0,0,44,44.55a11.67,11.67,0,0,0-1.5,3.76,2,2,0,0,0,.08,1.25.57.57,0,0,1,0,.46c-.28.82-.57,1.64-.84,2.47-.34,1-.52,2.09-.76,3.14-.22.89-.43,1.78-.62,2.68a20.57,20.57,0,0,0-.48,2.93c-.09,1.35-.16,2.7-.3,4.05a19.2,19.2,0,0,0-.17,2.93c0,1.44,0,2.88.15,4.32.16,1.16.37,2.31.52,3.47C40.18,77,40.34,78,40.49,79.06Z" transform="translate(-0.18)" style="fill:#feda01"/><path d="M126.78,59.62l0,0,0,0Z" transform="translate(-0.18)" style="fill:#050502"/><path d="M4.38,97.07a3,3,0,0,1,.34-1.31,2.87,2.87,0,0,1-.34,1.31Z" transform="translate(-0.18)" style="fill:#865405"/></svg>