<svg id="katman_1" data-name="katman 1" xmlns="http://www.w3.org/2000/svg" viewBox="0 0 76.31 128"><path d="M17.28,50.35c-.81.31-1.54.69-2.28,1-2.22,1.09-4.53,2-6.84,2.86-.87.33-1.72.71-2.62,1a1.1,1.1,0,0,1-.8,0c-.1,0-.18,0-.26,0-.27.06-.52,0-.61-.28,0-.14-.15-.13-.24-.16-.42-.11-.84-.24-1.26-.31a14.08,14.08,0,0,1-2-.64A.51.51,0,0,1,.12,53c.27-.38.55-.74.83-1.1,1.21-1.58,2.2-3.3,3.32-4.94,1.82-2.69,3.33-5.57,5.21-8.22a1.09,1.09,0,0,1,.76-.54c.12,0,.14-.08.17-.18a2.81,2.81,0,0,0,.06-.65c0-.45.11-.57.54-.72s.59-.1.88-.17.25-.09.14-.29a1.12,1.12,0,0,1,.21-1.42,58.79,58.79,0,0,0,3.65-4.65c1.05-1.49,2.2-2.9,3.34-4.33,1.88-2.36,3.52-4.9,5.22-7.39,2-3,3.94-6,5.89-9,.88-1.33,1.88-2.58,2.74-3.92C34.23,3.78,35.4,2,36.56.27a1.83,1.83,0,0,1,.32-.36.42.42,0,0,1,.59,0,12.92,12.92,0,0,0,3.07,1.35.23.23,0,0,0,.16,0c.36-.22.58,0,.8.23a2.72,2.72,0,0,1,.59.84,17.07,17.07,0,0,0,2.55,4.07,46.9,46.9,0,0,1,4,6c.95,1.57,1.79,3.21,2.88,4.69,1.91,2.6,3.57,5.37,5.48,8,2.21,3,4.29,6.09,6.43,9.15.19.26.36.53.56.78a.92.92,0,0,1,.1,1.11c-.23.41-.13.59.33.53a1.31,1.31,0,0,1,1.21.63c1.3,1.53,2.41,3.2,3.63,4.8.92,1.22,1.92,2.37,2.81,3.61,1.07,1.47,2.26,2.86,3.25,4.4a11.57,11.57,0,0,1,.92,1.65.88.88,0,0,1-.93,1.25.83.83,0,0,1-.27,0c-2-.53-4.11-1-6.09-1.69-1-.34-1.91-.71-2.87-1A15.4,15.4,0,0,0,64,49.68a7.12,7.12,0,0,1-2.24-.83,4.46,4.46,0,0,0-1.58-.56,6.62,6.62,0,0,1-1.56-.48c0,1,0,2,0,2.92,0,1.54-.2,3.09-.3,4.63-.17,2.49-.1,5-.06,7.47,0,2.19,0,4.38.26,6.57.1.92.16,1.85.29,2.77a4.59,4.59,0,0,1-.69,3l-.12.21a2,2,0,0,0-.29.57c0,.24.26.3.39.46a1.94,1.94,0,0,1,.17,2.22,3.63,3.63,0,0,0-.41.72.43.43,0,0,0,.14.62,2.36,2.36,0,0,1,.9,1.65,1.54,1.54,0,0,1-.1.77,6.26,6.26,0,0,0-.38,2.64c.1,1.86,0,3.72.1,5.58.15,2.79.14,5.59.3,8.39.13,2.4.38,4.8.58,7.2.14,1.77.26,3.55.49,5.31.32,2.43.6,4.87,1,7.3.22,1.42.37,2.86.49,4.3a25.32,25.32,0,0,0,.33,3.14c.06.25.14.49.2.73a.57.57,0,0,1-.31.72.52.52,0,0,1-.7-.26.74.74,0,0,0-.42-.32c-.77-.33-1.59-.52-2.37-.83a.36.36,0,0,0-.29,0,.52.52,0,0,1-.63-.14,24.4,24.4,0,0,0-2.33-2.33c-1.61-1.48-3.36-2.82-4.89-4.38-1-1-2.11-1.88-3.16-2.82-.52-.45-1-.94-1.48-1.43a1.53,1.53,0,0,0-.56-.45.35.35,0,0,1-.24-.23c-.06-.43-.46-.54-.71-.79-.11-.1-.2-.06-.31,0a1,1,0,0,1-.8,0A8.37,8.37,0,0,1,39.44,112c-.48-.44-.49-.45-1,0a17.4,17.4,0,0,1-2.4,2c-.45.28-.93.53-1.41.78a14.83,14.83,0,0,0-4,3,53.49,53.49,0,0,1-6.34,5.59c-1.36,1-2.73,2.09-4.05,3.2a1.11,1.11,0,0,1-1.27.2l-2.77-1.12c-.57-.23-.67-.38-.65-1a2.81,2.81,0,0,1,.07-1.16,6.2,6.2,0,0,0,.21-2.67,52.53,52.53,0,0,1,.42-6.86,7.12,7.12,0,0,1,.45-1.76.45.45,0,0,0,0-.42,4.31,4.31,0,0,1,.18-4.36c.35-.65.34-.81-.18-1.36a1,1,0,0,1-.18-1.19,5,5,0,0,1,.67-1.08.5.5,0,0,0,.14-.37c-.09-2.24-.05-4.48,0-6.72,0-1.83.12-3.67.1-5.5,0-1.53.13-3,.2-4.58a.74.74,0,0,0-.17-.59,1,1,0,0,1-.14-.73,6.67,6.67,0,0,1,.32-1.51,1,1,0,0,0-.44-1.36c-.38-.22-.43-.56-.24-1a9.4,9.4,0,0,1,.91-1.89.83.83,0,0,0,0-1c-.17-.26-.3-.54-.45-.81a2.87,2.87,0,0,1-.08-2.46c.23-.64.51-1.25.7-1.9a8.23,8.23,0,0,0,.06-3c-.15-1.82-.54-3.61-.69-5.42-.07-.85-.1-1.7-.11-2.55-.06-3.82,0-7.64,0-11.46Zm28,61.78a5,5,0,0,0-.79.65c-.06,0-.15.11-.07.2a1.55,1.55,0,0,0,.33.24c.1,0,.12-.08.15-.15a3.83,3.83,0,0,0,.37-.94h0Zm11.31,12c0-.13,0-.19,0-.25-.08-1.89-.34-3.76-.53-5.64s-.6-3.65-.76-5.49-.47-3.57-.59-5.37-.3-3.75-.45-5.62c-.12-1.46-.27-2.93-.35-4.39-.13-2.21-.07-4.43-.21-6.64-.16-2.5,0-5-.16-7.5a5.92,5.92,0,0,1,.4-2.5,1.09,1.09,0,0,0-.26-1.2c-.11-.13-.25-.24-.37-.36a1.25,1.25,0,0,1-.39-1.31,5,5,0,0,1,.61-1.23.73.73,0,0,0-.4-1.13.61.61,0,0,1-.47-.64,1.26,1.26,0,0,1,.14-.63l.73-1.4a3.23,3.23,0,0,0,.39-1.78c-.08-1.22-.26-2.42-.37-3.63-.22-2.5-.15-5-.26-7.5-.16-3.8.22-7.59.37-11.38a10.58,10.58,0,0,0-.1-2.81.47.47,0,0,1,.28-.57.46.46,0,0,0,.18-.1c.32-.37.45-.38.83-.07a1.84,1.84,0,0,0,.57.38A21.67,21.67,0,0,1,58.5,46.7a7.49,7.49,0,0,0,1.85.63,20.45,20.45,0,0,1,3.63,1,33.29,33.29,0,0,0,5.54,1.74c.58.13,1.15.28,1.73.42.09,0,.19.07.25,0s0-.15-.06-.21c-.23-.39-.45-.78-.69-1.16-1-1.64-2.32-3.09-3.45-4.67-.93-1.32-2-2.52-3-3.82s-1.89-2.68-2.94-3.94c-.28-.33-.53-.63-1-.58A1,1,0,0,1,60,36c-1-.4-1.07-.6-.64-1.57a.48.48,0,0,0-.07-.56c-2.92-4-5.68-8.17-8.64-12.18-1-1.28-1.67-2.72-2.64-4A88.36,88.36,0,0,1,43.09,10,36.88,36.88,0,0,0,40,5.58a14.52,14.52,0,0,1-2.73-4.5C37.2.93,37.17.68,37,.67s-.23.24-.31.39c-1,1.82-2.2,3.49-3.19,5.3-.67,1.22-1.59,2.28-2.34,3.44-2.07,3.19-4.11,6.39-6.25,9.52-1.65,2.41-3.2,4.87-5,7.18-1.24,1.61-2.52,3.18-3.69,4.85-.95,1.36-2,2.65-3.08,3.92-.41.48-.44.4-.06.89a.59.59,0,0,1-.22,1,2.78,2.78,0,0,1-1.12.39.29.29,0,0,0-.3.3c0,.26-.12.51-.16.77a.72.72,0,0,1-.72.66.45.45,0,0,0-.39.23c-.36.55-.73,1.09-1.08,1.64-1.1,1.71-2.06,3.5-3.2,5.19s-2.24,3.6-3.46,5.34l-.66.91c.16.08.25,0,.35-.06.36-.15.71-.32,1.07-.46,2.47-1,4.94-2,7.33-3.15,2.08-1,4.2-2,6.35-2.83a1.41,1.41,0,0,0,.61-.28c.26-.28.56-.19.67.18a2.85,2.85,0,0,1,.08.51c0,.59.06,1.19.05,1.79q0,6.84,0,13.7a28.16,28.16,0,0,0,.16,3.19c.23,1.94.55,3.86.7,5.81a6.75,6.75,0,0,1-.47,3.44,9.1,9.1,0,0,0-.5,1.35,1.69,1.69,0,0,0,.07,1.27c.15.32.31.64.48,1a1.64,1.64,0,0,1,0,1.9,10.54,10.54,0,0,0-.77,1.54c-.06.11-.08.2.05.3A2,2,0,0,1,18.57,84a8.4,8.4,0,0,0-.27,1.1.35.35,0,0,0,.08.32.86.86,0,0,1,.22.63c0,.61,0,1.22-.08,1.82-.16,1.9-.11,3.81-.15,5.71-.05,3.34-.23,6.68-.06,10a.94.94,0,0,1-.25.69,3.66,3.66,0,0,0-.54.84.22.22,0,0,0,0,.31,1.89,1.89,0,0,1,.17,2.54,3.93,3.93,0,0,0-.49,1.53,3,3,0,0,0,.38,1.82,1.33,1.33,0,0,1,0,1.31,4.22,4.22,0,0,0-.35,1.32,43.26,43.26,0,0,0-.4,5.8c0,1.09,0,2.18,0,3.27,0,.08-.06.2.05.24s.15-.07.22-.13c1-.8,1.92-1.63,2.92-2.39A46,46,0,0,0,25.43,116a17.58,17.58,0,0,1,5-3.76,11.22,11.22,0,0,0,3-2.11A8.31,8.31,0,0,1,36,108.39a.56.56,0,0,1,.83.37A.51.51,0,0,0,37,109a20.81,20.81,0,0,1,3.33,2.31,7.12,7.12,0,0,0,2.29,1.37.43.43,0,0,0,.52-.13,19,19,0,0,1,3.27-2.66c.35-.24.61-.25.84,0a.64.64,0,0,1,.05.85c-.56,1-1.07,2.08-1.54,3.16a.28.28,0,0,0,.06.36c.41.4.81.82,1.21,1.22,1.07,1.06,2.33,1.9,3.34,3,.26.28.54.56.83.82l3.37,3Zm3.92,2a2.76,2.76,0,0,1-.13-.52,33,33,0,0,0-.27-3.59c-.17-1.37-.24-2.74-.5-4.09-.32-1.65-.47-3.32-.68-5-.23-1.91-.44-3.82-.57-5.74q-.14-1.91-.3-3.81c-.12-1.48-.3-3-.37-4.45-.13-2.7-.14-5.41-.27-8.12-.1-2,0-4.1-.1-6.16a6.4,6.4,0,0,1,.41-2.63,1,1,0,0,0-.12-.94,2.56,2.56,0,0,0-.45-.48A1.3,1.3,0,0,1,56.81,79a6.92,6.92,0,0,1,.54-1,.76.76,0,0,0-.29-1.06c-.62-.28-.76-.61-.48-1.25a9.48,9.48,0,0,1,.52-1,4,4,0,0,0,.62-2.46c-.11-1.14-.27-2.27-.36-3.41-.11-1.36-.13-2.73-.17-4.09q-.12-4-.1-8.05c0-.39,0-.78,0-1.17,0-1,.21-2.08.24-3.12,0-.87.09-1.74.11-2.61a19.08,19.08,0,0,0,0-2.27.54.54,0,0,0-.37-.49c-.64-.26-1.27-.57-1.94-.8-.35-.12-.35-.12-.34.25a50.37,50.37,0,0,1-.15,5.5c-.15,1.73-.27,3.45-.26,5.19,0,2.23,0,4.47.06,6.71a58.61,58.61,0,0,0,.48,6.34,5.06,5.06,0,0,1-.61,3.51c-.13.21-.24.45-.37.66a.3.3,0,0,0,.08.48,1.85,1.85,0,0,1,.4,2.39,3.12,3.12,0,0,0-.34.59c-.24.47-.24.48.15.85a2.25,2.25,0,0,1,.64,2.62,4.54,4.54,0,0,0-.3,1.68c0,1.33.07,2.66.05,4,0,1.73.1,3.46.17,5.19.1,2.28.06,4.57.27,6.84.18,1.85.29,3.71.45,5.55.2,2.39.45,4.77.71,7.15s.74,4.85,1,7.29c.11,1.15.25,2.3.36,3.45a22.58,22.58,0,0,0,.28,2.46c0,.13,0,.27.18.34C58.82,125.62,59.68,125.78,60.54,126.15ZM38.62,1.46a10.08,10.08,0,0,0,1.51,2.65,38.64,38.64,0,0,1,3.43,4.72c1.34,2.21,2.6,4.46,4,6.61.83,1.26,1.74,2.47,2.55,3.76,1.72,2.74,3.75,5.26,5.55,8,1.44,2.16,3,4.25,4.48,6.36a1,1,0,0,1,.13,1.14c-.24.42-.14.55.36.56h.14a.77.77,0,0,1,.78.33c.34.4.71.78,1,1.21,1,1.38,2,2.83,3.09,4.17,1.62,2,3.14,4.07,4.7,6.11a17.48,17.48,0,0,1,1.94,3c.16.33.39.67.13,1.06-.09.14,0,.15.12.17l2.5.64a.16.16,0,0,0,.19,0c0-.07,0-.13,0-.19-.22-.4-.44-.8-.69-1.19-1-1.54-2.2-2.93-3.27-4.42-.82-1.16-1.77-2.22-2.63-3.35-1.2-1.57-2.3-3.21-3.55-4.74a1.11,1.11,0,0,0-.91-.5.7.7,0,0,1-.37-.09c-.93-.45-1.22-.38-.7-1.62a.46.46,0,0,0-.06-.5C61,32.38,59,29.52,57,26.61c-1.51-2.21-3.13-4.33-4.59-6.58s-2.84-4.14-4.11-6.31a54.21,54.21,0,0,0-4.15-6.36,20.08,20.08,0,0,1-2-2.71,13.87,13.87,0,0,1-1-2.21c0-.12-.06-.33-.27-.3A1.39,1.39,0,0,1,40.1,2C39.62,1.83,39.16,1.6,38.62,1.46ZM16.73,124.84c.76.37,1.51.66,2.26,1a.7.7,0,0,0,.78-.13c.45-.3.67-.79,1.09-1.12.92-.73,1.79-1.54,2.73-2.25a52.17,52.17,0,0,0,5.95-5.26,16.37,16.37,0,0,1,4.62-3.42,10,10,0,0,0,2.13-1.33l1.4-1.22c.2-.18.24-.26,0-.41-.48-.3-1-.6-1.4-.94a.31.31,0,0,0-.38-.06,4.68,4.68,0,0,0-1.13.84,16.07,16.07,0,0,1-4.16,3A13.41,13.41,0,0,0,27.14,116c-.9.89-1.79,1.81-2.71,2.68-1.53,1.45-3.27,2.63-4.88,4C18.64,123.4,17.69,124.09,16.73,124.84ZM2.26,53.7A11.75,11.75,0,0,1,3.77,54a3,3,0,0,0,2.07-.1c1.33-.48,2.62-1.1,3.94-1.61,2.48-1,4.82-2.19,7.24-3.28a.38.38,0,0,0,.27-.41,7.85,7.85,0,0,1,0-1c0-.26-.07-.29-.3-.2-1.49.61-3,1.22-4.41,1.93A88.71,88.71,0,0,1,4.3,52.91C3.63,53.15,3,53.42,2.26,53.7Z" transform="translate(0 0.23)" style="fill:#050502"/><path d="M56.62,124.15l-2-1.82-3.37-3c-.29-.26-.57-.54-.83-.82-1-1.13-2.27-2-3.34-3-.4-.4-.8-.82-1.21-1.22a.28.28,0,0,1-.06-.36c.47-1.08,1-2.13,1.54-3.16a.64.64,0,0,0-.05-.85c-.23-.22-.49-.21-.84,0a19,19,0,0,0-3.27,2.66.43.43,0,0,1-.52.13,7.12,7.12,0,0,1-2.29-1.37A20.81,20.81,0,0,0,37,109a.51.51,0,0,1-.23-.27.56.56,0,0,0-.83-.37,8.31,8.31,0,0,0-2.51,1.72,11.22,11.22,0,0,1-3,2.11,17.58,17.58,0,0,0-5,3.76,46,46,0,0,1-5.33,4.72c-1,.76-2,1.59-2.92,2.39-.07.06-.12.18-.22.13s0-.16-.05-.24c0-1.09-.06-2.18,0-3.27a43.26,43.26,0,0,1,.4-5.8,4.22,4.22,0,0,1,.35-1.32,1.33,1.33,0,0,0,0-1.31,3,3,0,0,1-.38-1.82,3.93,3.93,0,0,1,.49-1.53,1.89,1.89,0,0,0-.17-2.54.22.22,0,0,1,0-.31,3.66,3.66,0,0,1,.54-.84.94.94,0,0,0,.25-.69c-.17-3.34,0-6.68.06-10,0-1.9,0-3.81.15-5.71.05-.6.09-1.21.08-1.82a.86.86,0,0,0-.22-.63.35.35,0,0,1-.08-.32,8.4,8.4,0,0,1,.27-1.1A2,2,0,0,0,18,81.74c-.13-.1-.11-.19-.05-.3a10.54,10.54,0,0,1,.77-1.54,1.64,1.64,0,0,0,0-1.9c-.17-.31-.33-.63-.48-1a1.69,1.69,0,0,1-.07-1.27,9.1,9.1,0,0,1,.5-1.35A6.75,6.75,0,0,0,19.12,71c-.15-1.95-.47-3.87-.7-5.81A28.16,28.16,0,0,1,18.26,62q0-6.85,0-13.7c0-.6,0-1.2-.05-1.79a2.85,2.85,0,0,0-.08-.51c-.11-.37-.41-.46-.67-.18a1.41,1.41,0,0,1-.61.28c-2.15.88-4.27,1.8-6.35,2.83-2.39,1.18-4.86,2.15-7.33,3.15-.36.14-.71.31-1.07.46-.1,0-.19.14-.35.06l.66-.91c1.22-1.74,2.28-3.58,3.46-5.34s2.1-3.48,3.2-5.19c.35-.55.72-1.09,1.08-1.64a.45.45,0,0,1,.39-.23.72.72,0,0,0,.72-.66c0-.26.12-.51.16-.77a.29.29,0,0,1,.3-.3,2.78,2.78,0,0,0,1.12-.39.59.59,0,0,0,.22-1c-.38-.49-.35-.41.06-.89,1.08-1.27,2.13-2.56,3.08-3.92,1.17-1.67,2.45-3.24,3.69-4.85,1.79-2.31,3.34-4.77,5-7.18C27.06,16.19,29.1,13,31.17,9.8c.75-1.16,1.67-2.22,2.34-3.44,1-1.81,2.21-3.48,3.19-5.3.08-.15.16-.39.31-.39s.19.26.25.41A14.52,14.52,0,0,0,40,5.58,36.88,36.88,0,0,1,43.09,10,88.36,88.36,0,0,0,48,17.7c1,1.26,1.69,2.7,2.64,4,3,4,5.72,8.16,8.64,12.18a.48.48,0,0,1,.07.56c-.43,1-.34,1.17.64,1.57a1,1,0,0,0,.4.11c.48-.05.73.25,1,.58,1.05,1.26,2,2.61,2.94,3.94s2.06,2.5,3,3.82c1.13,1.58,2.42,3,3.45,4.67.24.38.46.77.69,1.16,0,.06.11.13.06.21s-.16.06-.25,0c-.58-.14-1.15-.29-1.73-.42A33.29,33.29,0,0,1,64,48.35a20.45,20.45,0,0,0-3.63-1,7.49,7.49,0,0,1-1.85-.63,21.67,21.67,0,0,0-3.06-1.31,1.84,1.84,0,0,1-.57-.38c-.38-.31-.51-.3-.83.07a.46.46,0,0,1-.18.1.47.47,0,0,0-.28.57,10.58,10.58,0,0,1,.1,2.81c-.15,3.79-.53,7.58-.37,11.38.11,2.5,0,5,.26,7.5.11,1.21.29,2.41.37,3.63a3.23,3.23,0,0,1-.39,1.78l-.73,1.4a1.26,1.26,0,0,0-.14.63.61.61,0,0,0,.47.64.73.73,0,0,1,.4,1.13,5,5,0,0,0-.61,1.23,1.25,1.25,0,0,0,.39,1.31c.12.12.26.23.37.36a1.09,1.09,0,0,1,.26,1.2,5.92,5.92,0,0,0-.4,2.5c.11,2.5,0,5,.16,7.5.14,2.21.08,4.43.21,6.64.08,1.46.23,2.93.35,4.39.15,1.87.31,3.75.45,5.62s.43,3.58.59,5.37.58,3.65.76,5.49.45,3.75.53,5.64C56.61,124,56.62,124,56.62,124.15ZM49.79,42.26v-.34c0-.13,0-.25,0-.38,0-.43,0-.45.43-.26s.87.44,1.33.62a5.23,5.23,0,0,1,1,.45,13.33,13.33,0,0,0,1.91,1c.28.12.55.27.83.39.54.22,1.11.37,1.62.64a21,21,0,0,0,3,1.14,3.51,3.51,0,0,0,1.05.3,1.52,1.52,0,0,1,.78.24,1.58,1.58,0,0,0,.92.23,1.67,1.67,0,0,1,1.12.33,1.26,1.26,0,0,0,1.82-.4,1.29,1.29,0,0,0-.37-1.81,4.54,4.54,0,0,0-.91-.39,1.28,1.28,0,0,1-.88-.84.88.88,0,0,0-.31-.45,12.88,12.88,0,0,1-1.35-1.59c-.6-.66-1.15-1.36-1.75-2a7.72,7.72,0,0,1-1.27-1.76A20.75,20.75,0,0,0,56.53,34a29.3,29.3,0,0,1-1.93-3c-.7-1.23-1.56-2.36-2.28-3.58-.46-.78-1-1.53-1.43-2.3s-.87-1.51-1.37-2.21-1.19-1.64-1.83-2.43c-.78-1-1.64-1.87-2.44-2.83-.6-.72-1.24-1.41-1.8-2.16-.36-.49-.67-1-1-1.53s-.86-1.21-1.33-1.78a11.4,11.4,0,0,0-.88-1.22c-.47-.47-.88-1-1.31-1.5a1.57,1.57,0,0,0-2.44.11,4,4,0,0,1-.67.79,10.43,10.43,0,0,0-1.21,1.53c-.5.65-.92,1.36-1.42,2s-1.15,1.62-1.7,2.44-.91,1.42-1.4,2.11a6.1,6.1,0,0,1-1.42,1.74,1.57,1.57,0,0,0-.31.32c-.27.3-.51.62-.79.91a20.08,20.08,0,0,0-1.46,1.72,19.11,19.11,0,0,1-1.44,1.79c-.59.6-1.11,1.27-1.66,1.91a6.86,6.86,0,0,0-.79,1c-.23.41-.57.74-.83,1.13-.48.73-1,1.43-1.54,2.13-.31.43-.62.84-.94,1.26s-.56.67-.83,1c-.59.73-1.15,1.47-1.78,2.17-.26.3-.57.57-.81.89-.71,1-1.6,1.84-2.27,2.86-.43.64-1,1.21-1.43,1.84-.59.81-1.15,1.64-1.7,2.48a3.51,3.51,0,0,0-.67,1.15,1,1,0,0,1-.42.6,19.57,19.57,0,0,0-1.93,2,.72.72,0,0,0,0,.9.71.71,0,0,0,.87.21c.62-.31,1.28-.54,1.89-.89a6.58,6.58,0,0,1,1.09-.71,3.74,3.74,0,0,0,1.49-.81.51.51,0,0,1,.28-.12,7.15,7.15,0,0,0,1.93-.77c1.29-.68,2.64-1.24,3.94-1.91,1-.53,2.06-1.13,3.08-1.71.09,0,.17-.15.28-.1s.09.2.09.31c0,1,0,1.92-.05,2.88-.08,1.65,0,3.3-.07,4.95A26.59,26.59,0,0,0,22,52.8c.07,1,0,2,.06,3,.07,1.15,0,2.31.08,3.47,0,.89,0,1.78,0,2.67,0,1.92.06,3.85-.06,5.77-.05.68,0,1.35-.06,2-.06,1.09-.11,2.19-.14,3.29-.05,1.61,0,3.22-.07,4.83-.05,1.19,0,2.39,0,3.59,0,.94,0,1.88,0,2.82,0,1.82,0,3.64,0,5.46,0,.67,0,1.34-.1,2s-.11,1.54-.17,2.32c-.1,1.43-.17,2.87-.25,4.31,0,.64,0,1.29-.06,1.94-.06,1.23-.17,2.47-.16,3.7,0,.32,0,.64,0,1-.07,1,0,2-.08,3a12.28,12.28,0,0,0,.05,1.6c0,1.07-.07,2.15-.07,3.23a1.62,1.62,0,0,0,1,1.54,1.53,1.53,0,0,0,1.71-.15,4.73,4.73,0,0,1,1.08-.64.61.61,0,0,0,.23-.15l2.8-2.58c.5-.46,1-.91,1.51-1.35.81-.72,1.69-1.36,2.45-2.14s1.76-1.7,2.65-2.54,1.63-1.37,2.43-2.06a.33.33,0,0,1,.46,0,29.67,29.67,0,0,0,2.68,1.65,5.27,5.27,0,0,0,.62.43,5.52,5.52,0,0,1,1,.63c.7.49,1.38,1,2.1,1.47s1.31.95,2,1.42,1.28,1,1.94,1.4A9.54,9.54,0,0,1,49,111.18c.45.5.88,1,1.36,1.5.31.31.69.52,1,.83a4.63,4.63,0,0,0,1.12.84,1.26,1.26,0,0,0,1.55-.33,1.2,1.2,0,0,0,0-1.49c-.3-.43-.79-.78-.66-1.42,0-.06,0-.13-.06-.2a18.11,18.11,0,0,1-.46-2.42c-.14-1-.21-2.06-.31-3.09-.13-1.3-.16-2.6-.32-3.89-.11-.88-.12-1.78-.22-2.66-.17-1.36-.16-2.73-.33-4.09-.1-.85-.11-1.71-.23-2.56-.19-1.37-.21-2.75-.31-4.13,0-.79-.09-1.59-.12-2.38,0-1.39-.17-2.78-.24-4.17-.06-1.24-.09-2.47-.13-3.71,0-1.74-.09-3.48-.14-5.21-.06-2.24,0-4.48,0-6.72a17.83,17.83,0,0,1,0-1.79,20.39,20.39,0,0,0,0-2.21c-.09-1.63,0-3.26-.07-4.88-.08-1.39-.06-2.78-.09-4.16,0-1,0-1.92-.07-2.89a1.11,1.11,0,0,0,0-.17,16.07,16.07,0,0,1-.3-2.57C49.91,45.56,49.84,43.91,49.79,42.26Z" transform="translate(0 0.23)" style="fill:#fdd901"/><path d="M60.54,126.15c-.86-.37-1.72-.53-2.51-.9-.15-.07-.16-.21-.18-.34a22.58,22.58,0,0,1-.28-2.46c-.11-1.15-.25-2.3-.36-3.45-.24-2.44-.72-4.85-1-7.29s-.51-4.76-.71-7.15c-.16-1.84-.27-3.7-.45-5.55-.21-2.27-.17-4.56-.27-6.84-.07-1.73-.19-3.46-.17-5.19,0-1.33-.05-2.66-.05-4a4.54,4.54,0,0,1,.3-1.68,2.25,2.25,0,0,0-.64-2.62c-.39-.37-.39-.38-.15-.85a3.12,3.12,0,0,1,.34-.59,1.85,1.85,0,0,0-.4-2.39.3.3,0,0,1-.08-.48c.13-.21.24-.45.37-.66a5.06,5.06,0,0,0,.61-3.51,58.61,58.61,0,0,1-.48-6.34c0-2.24,0-4.48-.06-6.71,0-1.74.11-3.46.26-5.19a50.37,50.37,0,0,0,.15-5.5c0-.37,0-.37.34-.25.67.23,1.3.54,1.94.8a.54.54,0,0,1,.37.49,19.08,19.08,0,0,1,0,2.27c0,.87-.09,1.74-.11,2.61,0,1-.19,2.08-.24,3.12,0,.39,0,.78,0,1.17q0,4,.1,8.05c0,1.36.06,2.73.17,4.09.09,1.14.25,2.27.36,3.41a4,4,0,0,1-.62,2.46,9.48,9.48,0,0,0-.52,1c-.28.64-.14,1,.48,1.25A.76.76,0,0,1,57.35,78a6.92,6.92,0,0,0-.54,1,1.3,1.3,0,0,0,.38,1.64,2.56,2.56,0,0,1,.45.48,1,1,0,0,1,.12.94,6.4,6.4,0,0,0-.41,2.63c.07,2.06,0,4.11.1,6.16.13,2.71.14,5.42.27,8.12.07,1.49.25,3,.37,4.45q.16,1.9.3,3.81c.13,1.92.34,3.83.57,5.74.21,1.66.36,3.33.68,5,.26,1.35.33,2.72.5,4.09a33,33,0,0,1,.27,3.59A2.76,2.76,0,0,0,60.54,126.15Z" transform="translate(0 0.23)" style="fill:#b67207"/><path d="M38.62,1.46c.54.14,1,.37,1.48.54a1.39,1.39,0,0,0,.67.14c.21,0,.22.18.27.3a13.87,13.87,0,0,0,1,2.21,20.08,20.08,0,0,0,2,2.71,54.21,54.21,0,0,1,4.15,6.36C49.54,15.89,51,17.93,52.38,20S55.46,24.4,57,26.61c2,2.91,4.07,5.77,6.09,8.66a.46.46,0,0,1,.06.5c-.52,1.24-.23,1.17.7,1.62a.7.7,0,0,0,.37.09,1.11,1.11,0,0,1,.91.5c1.25,1.53,2.35,3.17,3.55,4.74.86,1.13,1.81,2.19,2.63,3.35,1.07,1.49,2.28,2.88,3.27,4.42.25.39.47.79.69,1.19,0,.06.08.12,0,.19a.16.16,0,0,1-.19,0l-2.5-.64c-.09,0-.21,0-.12-.17.26-.39,0-.73-.13-1.06a17.48,17.48,0,0,0-1.94-3c-1.56-2-3.08-4.11-4.7-6.11-1.09-1.34-2-2.79-3.09-4.17-.31-.43-.68-.81-1-1.21a.77.77,0,0,0-.78-.33h-.14c-.5,0-.6-.14-.36-.56a1,1,0,0,0-.13-1.14c-1.5-2.11-3-4.2-4.48-6.36-1.8-2.69-3.83-5.21-5.55-7.95-.81-1.29-1.72-2.5-2.55-3.76-1.43-2.15-2.69-4.4-4-6.61a38.64,38.64,0,0,0-3.43-4.72A10.08,10.08,0,0,1,38.62,1.46Z" transform="translate(0 0.23)" style="fill:#b67207"/><path d="M16.73,124.84c1-.75,1.91-1.44,2.82-2.2,1.61-1.34,3.35-2.52,4.88-4,.92-.87,1.81-1.79,2.71-2.68a13.41,13.41,0,0,1,3.47-2.52,16.07,16.07,0,0,0,4.16-3,4.68,4.68,0,0,1,1.13-.84.31.31,0,0,1,.38.06c.45.34.92.64,1.4.94.25.15.21.23,0,.41l-1.4,1.22a10,10,0,0,1-2.13,1.33,16.37,16.37,0,0,0-4.62,3.42,52.17,52.17,0,0,1-5.95,5.26c-.94.71-1.81,1.52-2.73,2.25-.42.33-.64.82-1.09,1.12a.7.7,0,0,1-.78.13C18.24,125.5,17.49,125.21,16.73,124.84Z" transform="translate(0 0.23)" style="fill:#b67207"/><path d="M2.26,53.7c.72-.28,1.37-.55,2-.79a88.71,88.71,0,0,0,8.28-3.53C14,48.67,15.5,48.06,17,47.45c.23-.09.31-.06.3.2a7.85,7.85,0,0,0,0,1A.38.38,0,0,1,17,49c-2.42,1.09-4.76,2.32-7.24,3.28-1.32.51-2.61,1.13-3.94,1.61a3,3,0,0,1-2.07.1A11.75,11.75,0,0,0,2.26,53.7Z" transform="translate(0 0.23)" style="fill:#b67207"/><path d="M45.3,112.13a3.83,3.83,0,0,1-.37.94c0,.07,0,.2-.15.15a1.55,1.55,0,0,1-.33-.24c-.08-.09,0-.15.07-.2a5,5,0,0,1,.79-.65Z" transform="translate(0 0.23)" style="fill:#b67207"/><path d="M45.31,112.13h0Z" transform="translate(0 0.23)" style="fill:#b67207"/><path d="M49.79,42.26c.05,1.65.12,3.3.15,5a16.07,16.07,0,0,0,.3,2.57,1.11,1.11,0,0,1,0,.17c0,1,.05,1.93.07,2.89,0,1.38,0,2.77.09,4.16.09,1.62,0,3.25.07,4.88a20.39,20.39,0,0,1,0,2.21,17.83,17.83,0,0,0,0,1.79c0,2.24,0,4.48,0,6.72.05,1.73.1,3.47.14,5.21,0,1.24.07,2.47.13,3.71.07,1.39.2,2.78.24,4.17,0,.79.07,1.59.12,2.38.1,1.38.12,2.76.31,4.13.12.85.13,1.71.23,2.56.17,1.36.16,2.73.33,4.09.1.88.11,1.78.22,2.66.16,1.29.19,2.59.32,3.89.1,1,.17,2.07.31,3.09a18.11,18.11,0,0,0,.46,2.42c0,.07.07.14.06.2-.13.64.36,1,.66,1.42a1.2,1.2,0,0,1,0,1.49,1.26,1.26,0,0,1-1.55.33,4.63,4.63,0,0,1-1.12-.84c-.3-.31-.68-.52-1-.83-.48-.48-.91-1-1.36-1.5a9.54,9.54,0,0,0-1.58-1.46c-.66-.45-1.29-.94-1.94-1.4s-1.28-1-2-1.42-1.4-1-2.1-1.47a5.52,5.52,0,0,0-1-.63,5.27,5.27,0,0,1-.62-.43,29.67,29.67,0,0,1-2.68-1.65.33.33,0,0,0-.46,0c-.8.69-1.65,1.34-2.43,2.06s-1.8,1.66-2.65,2.54-1.64,1.42-2.45,2.14c-.51.44-1,.89-1.51,1.35l-2.8,2.58a.61.61,0,0,1-.23.15,4.73,4.73,0,0,0-1.08.64,1.53,1.53,0,0,1-1.71.15,1.62,1.62,0,0,1-1-1.54c0-1.08.11-2.16.07-3.23a12.28,12.28,0,0,1-.05-1.6c.09-1,0-2,.08-3,0-.31,0-.63,0-1,0-1.23.1-2.47.16-3.7,0-.65,0-1.3.06-1.94.08-1.44.15-2.88.25-4.31.06-.78.09-1.55.17-2.32s.08-1.35.1-2c.06-1.82,0-3.64,0-5.46,0-.94,0-1.88,0-2.82,0-1.2,0-2.4,0-3.59.05-1.61,0-3.22.07-4.83,0-1.1.08-2.2.14-3.29,0-.68,0-1.35.06-2,.12-1.92,0-3.85.06-5.77,0-.89,0-1.78,0-2.67-.05-1.16,0-2.32-.08-3.47-.05-1,0-2-.06-3a26.59,26.59,0,0,1-.11-3.22c.09-1.65,0-3.3.07-4.95.05-1,0-1.92.05-2.88,0-.11,0-.25-.09-.31s-.19.05-.28.1c-1,.58-2,1.18-3.08,1.71-1.3.67-2.65,1.23-3.94,1.91a7.15,7.15,0,0,1-1.93.77.51.51,0,0,0-.28.12,3.74,3.74,0,0,1-1.49.81,6.58,6.58,0,0,0-1.09.71c-.61.35-1.27.58-1.89.89A.71.71,0,0,1,7,48.25a.72.72,0,0,1,0-.9,19.57,19.57,0,0,1,1.93-2,1,1,0,0,0,.42-.6,3.51,3.51,0,0,1,.67-1.15c.55-.84,1.11-1.67,1.7-2.48.46-.63,1-1.2,1.43-1.84.67-1,1.56-1.87,2.27-2.86.24-.32.55-.59.81-.89.63-.7,1.19-1.44,1.78-2.17.27-.33.57-.65.83-1s.63-.83.94-1.26c.52-.7,1.06-1.4,1.54-2.13.26-.39.6-.72.83-1.13a6.86,6.86,0,0,1,.79-1c.55-.64,1.07-1.31,1.66-1.91a19.11,19.11,0,0,0,1.44-1.79,20.08,20.08,0,0,1,1.46-1.72c.28-.29.52-.61.79-.91a1.57,1.57,0,0,1,.31-.32,6.1,6.1,0,0,0,1.42-1.74c.49-.69.92-1.41,1.4-2.11s1.09-1.66,1.7-2.44.92-1.36,1.42-2a10.43,10.43,0,0,1,1.21-1.53,4,4,0,0,0,.67-.79,1.57,1.57,0,0,1,2.44-.11c.43.51.84,1,1.31,1.5a11.4,11.4,0,0,1,.88,1.22c.47.57.91,1.17,1.33,1.78s.66,1,1,1.53c.56.75,1.2,1.44,1.8,2.16.8,1,1.66,1.86,2.44,2.83.64.79,1.23,1.61,1.83,2.43s.91,1.48,1.37,2.21,1,1.52,1.43,2.3C53,28.61,53.9,29.74,54.6,31a29.3,29.3,0,0,0,1.93,3,20.75,20.75,0,0,1,2.23,3.4A7.72,7.72,0,0,0,60,39.12c.6.66,1.15,1.36,1.75,2a12.88,12.88,0,0,0,1.35,1.59.88.88,0,0,1,.31.45,1.28,1.28,0,0,0,.88.84,4.54,4.54,0,0,1,.91.39,1.29,1.29,0,0,1,.37,1.81,1.26,1.26,0,0,1-1.82.4,1.67,1.67,0,0,0-1.12-.33,1.58,1.58,0,0,1-.92-.23,1.52,1.52,0,0,0-.78-.24,3.51,3.51,0,0,1-1.05-.3,21,21,0,0,1-3-1.14c-.51-.27-1.08-.42-1.62-.64-.28-.12-.55-.27-.83-.39a13.33,13.33,0,0,1-1.91-1,5.23,5.23,0,0,0-1-.45c-.46-.18-.89-.41-1.33-.62s-.43-.17-.43.26c0,.13,0,.25,0,.38ZM57.47,41c0-.15,0-.2-.1-.27l-.81-1a12.59,12.59,0,0,1-1-1.73c-.65-1.14-1.53-2.12-2.25-3.21-.54-.8-1-1.62-1.56-2.43-.4-.61-.67-1.29-1.07-1.9s-.9-1.35-1.31-2-1-1.52-1.4-2.31a12.52,12.52,0,0,0-1-1.56c-.52-.68-1-1.4-1.53-2.06-.83-1-1.7-1.95-2.56-2.91A34,34,0,0,1,40.1,16.3c-.7-1-1.53-2-2.22-3-.17-.25-.29-.21-.44,0-.35.5-.7,1-1,1.49a14.31,14.31,0,0,1-1.23,1.64c-.63.7-1.15,1.48-1.76,2.2A18,18,0,0,0,32,20.5a2.76,2.76,0,0,0-.67,1.33,1.13,1.13,0,0,1-.36.72,5.68,5.68,0,0,0-.76,1,27.5,27.5,0,0,1-1.89,2.64c-.5.62-.88,1.32-1.42,1.92a7.07,7.07,0,0,0-.67.78c-.65.94-1.36,1.83-2,2.76a33.54,33.54,0,0,1-2,2.78,7.92,7.92,0,0,0-.71.91,23.3,23.3,0,0,1-1.69,2.11,8.59,8.59,0,0,1-1,1.12.15.15,0,0,0-.05.19.26.26,0,0,0,.24-.07c.67-.51,1.46-.81,2.15-1.28A1.56,1.56,0,0,1,22,37.2a3.18,3.18,0,0,1,1.64.55,1,1,0,0,1,.66.86c.09.9.19,1.8.21,2.7,0,.67.05,1.34,0,2,0,1.21,0,2.42,0,3.62s.05,2.54.14,3.81.14,2.81.21,4.21.18,2.68.2,4c0,2,0,4,0,6.05,0,1.35,0,2.7,0,4s-.07,2.51-.16,3.76c-.08,1,0,2-.07,3-.07,2.34,0,4.67-.07,7,0,.7.06,1.4.05,2.1,0,1.45.07,2.91-.06,4.36-.06.76,0,1.51-.05,2.27,0,1.49-.24,3-.29,4.46s-.1,2.88-.14,4.32c0,.88,0,1.76,0,2.63-.07,2,0,4-.1,6,0,.08-.05.2.07.24s.13-.07.19-.13c.5-.48,1-1,1.51-1.44.84-.71,1.65-1.44,2.5-2.14s1.45-1.46,2.17-2.18c.32-.31.62-.65.95-.94.62-.52,1.21-1.07,1.83-1.6a7.87,7.87,0,0,0,1.73-1.68c.31-.49.88-.54,1.43-.62a1.8,1.8,0,0,1,2.09,1.14,1.07,1.07,0,0,0,.42.49c.91.6,1.84,1.18,2.76,1.77a14.81,14.81,0,0,1,1.85,1.41c.4.36.79.73,1.22,1a20.58,20.58,0,0,1,1.78,1.33c.33.31.69.59,1,.88.63.51,1.35.89,2,1.44.06.05.1.15.2.11s.05-.14.05-.22q-.09-.88-.15-1.77c-.09-1.09-.26-2.18-.32-3.27s-.22-2.24-.31-3.37c-.1-1.34-.2-2.68-.31-4-.08-1.1-.17-2.2-.3-3.3s-.18-1.91-.25-2.86-.1-1.78-.14-2.67c-.06-1.51-.11-3-.21-4.52-.06-.87-.08-1.73-.1-2.6,0-1.21-.13-2.42-.11-3.63,0-.31,0-.61,0-.92-.05-1.14-.08-2.28-.11-3.42,0-1,0-1.93,0-2.89.07-1.89,0-3.79,0-5.68,0-1.46,0-2.91,0-4.37,0-1.19,0-2.4-.07-3.6,0-.9,0-1.81,0-2.71a15.32,15.32,0,0,0-.09-2.71,29.47,29.47,0,0,1-.39-4.39c0-1-.23-2-.21-3A20.62,20.62,0,0,1,47,38.8a1.79,1.79,0,0,1,2.69-1.47c.65.32,1.35.55,2,.85a22.82,22.82,0,0,1,2.66,1.34A19.11,19.11,0,0,0,57.47,41Z" transform="translate(0 0.23)" style="fill:#fe9c01"/><path d="M57.47,41a19.11,19.11,0,0,1-3.08-1.51,22.82,22.82,0,0,0-2.66-1.34c-.66-.3-1.36-.53-2-.85A1.79,1.79,0,0,0,47,38.8a20.62,20.62,0,0,0-.14,3.33c0,1,.18,2,.21,3a29.47,29.47,0,0,0,.39,4.39,15.32,15.32,0,0,1,.09,2.71c0,.9-.07,1.81,0,2.71,0,1.2.07,2.41.07,3.6,0,1.46,0,2.91,0,4.37,0,1.89.05,3.79,0,5.68,0,1,0,1.93,0,2.89,0,1.14.06,2.28.11,3.42,0,.31,0,.61,0,.92,0,1.21.07,2.42.11,3.63,0,.87,0,1.73.1,2.6.1,1.5.15,3,.21,4.52,0,.89.07,1.78.14,2.67s.14,1.91.25,2.86.22,2.2.3,3.3c.11,1.35.21,2.69.31,4,.09,1.13.26,2.24.31,3.37s.23,2.18.32,3.27q.06.89.15,1.77c0,.08,0,.18-.05.22s-.14-.06-.2-.11c-.6-.55-1.32-.93-2-1.44-.36-.29-.72-.57-1-.88a20.58,20.58,0,0,0-1.78-1.33c-.43-.32-.82-.69-1.22-1a14.81,14.81,0,0,0-1.85-1.41c-.92-.59-1.85-1.17-2.76-1.77a1.07,1.07,0,0,1-.42-.49,1.8,1.8,0,0,0-2.09-1.14c-.55.08-1.12.13-1.43.62a7.87,7.87,0,0,1-1.73,1.68c-.62.53-1.21,1.08-1.83,1.6-.33.29-.63.63-.95.94-.72.72-1.38,1.52-2.17,2.18s-1.66,1.43-2.5,2.14c-.53.45-1,1-1.51,1.44-.06.06-.11.15-.19.13s-.08-.16-.07-.24c.11-2,0-4,.1-6,0-.87,0-1.75,0-2.63,0-1.44.08-2.88.14-4.32s.24-3,.29-4.46c0-.76,0-1.51.05-2.27.13-1.45,0-2.91.06-4.36,0-.7-.08-1.4-.05-2.1.1-2.34,0-4.67.07-7,0-1,0-2,.07-3,.09-1.25.11-2.51.16-3.76s0-2.7,0-4c0-2,0-4,0-6.05,0-1.35-.13-2.69-.2-4s-.12-2.81-.21-4.21-.13-2.54-.14-3.81-.08-2.41,0-3.62c0-.67,0-1.34,0-2,0-.9-.12-1.8-.21-2.7a1,1,0,0,0-.66-.86A3.18,3.18,0,0,0,22,37.2a1.56,1.56,0,0,0-.74.22c-.69.47-1.48.77-2.15,1.28a.26.26,0,0,1-.24.07.15.15,0,0,1,.05-.19,8.59,8.59,0,0,0,1-1.12,23.3,23.3,0,0,0,1.69-2.11,7.92,7.92,0,0,1,.71-.91,33.54,33.54,0,0,0,2-2.78c.65-.93,1.36-1.82,2-2.76a7.07,7.07,0,0,1,.67-.78c.54-.6.92-1.3,1.42-1.92a27.5,27.5,0,0,0,1.89-2.64,5.68,5.68,0,0,1,.76-1,1.13,1.13,0,0,0,.36-.72A2.76,2.76,0,0,1,32,20.5a18,18,0,0,1,1.38-1.87c.61-.72,1.13-1.5,1.76-2.2a14.31,14.31,0,0,0,1.23-1.64c.33-.5.68-1,1-1.49.15-.2.27-.24.44,0,.69,1,1.52,2,2.22,3a34,34,0,0,0,2.69,3.28c.86,1,1.73,1.92,2.56,2.91.54.66,1,1.38,1.53,2.06a12.52,12.52,0,0,1,1,1.56c.43.79.94,1.53,1.4,2.31s.87,1.37,1.31,2,.67,1.29,1.07,1.9c.53.81,1,1.63,1.56,2.43.72,1.09,1.6,2.07,2.25,3.21a12.59,12.59,0,0,0,1,1.73l.81,1C57.42,40.83,57.5,40.88,57.47,41Z" transform="translate(0 0.23)" style="fill:#feda01"/></svg>